<mxfile host="app.diagrams.net" modified="2021-03-06T19:17:40.556Z" agent="5.0 (Windows NT 10.0; Win64; x64) AppleWebKit/537.36 (KHTML, like Gecko) Chrome/88.0.4324.150  Safari/537.36" etag="uNGlHV6jxtMPd75JKLMJ" version="14.4.4" type="github">
  <diagram id="r4k9YjdjaylWLoNKeNUF" name="Page-1">
    <mxGraphModel dx="3873" dy="693" grid="1" gridSize="10" guides="1" tooltips="1" connect="1" arrows="1" fold="1" page="1" pageScale="1" pageWidth="850" pageHeight="1100" math="0" shadow="0">
      <root>
        <mxCell id="0" />
        <mxCell id="1" parent="0" />
        <mxCell id="9rIR4brEF0M2VbCypg3W-117" value="" style="whiteSpace=wrap;html=1;aspect=fixed;align=left;labelPosition=right;verticalLabelPosition=middle;verticalAlign=middle;fontSize=10;fillColor=#e51400;strokeColor=#B20000;fontColor=#ffffff;" parent="1" vertex="1">
          <mxGeometry x="-2170" y="182.75" width="18.5" height="18.5" as="geometry" />
        </mxCell>
        <mxCell id="9rIR4brEF0M2VbCypg3W-119" value="&lt;h1&gt;&lt;font style=&quot;font-size: 10px&quot;&gt;Emitted Events&lt;/font&gt;&lt;br&gt;&lt;/h1&gt;" style="text;html=1;strokeColor=none;fillColor=none;spacing=5;spacingTop=-20;whiteSpace=wrap;overflow=hidden;rounded=0;fontSize=10;align=center;" parent="1" vertex="1">
          <mxGeometry x="-2164.5" y="176" width="110" height="30" as="geometry" />
        </mxCell>
        <mxCell id="9rIR4brEF0M2VbCypg3W-120" value="&lt;h1&gt;&lt;font style=&quot;font-size: 10px&quot;&gt;Observed Events&lt;/font&gt;&lt;br&gt;&lt;/h1&gt;" style="text;html=1;strokeColor=none;fillColor=none;spacing=5;spacingTop=-20;whiteSpace=wrap;overflow=hidden;rounded=0;fontSize=10;align=center;" parent="1" vertex="1">
          <mxGeometry x="-2151.5" y="198" width="94" height="30" as="geometry" />
        </mxCell>
        <mxCell id="x8yFt2Wua3zqLqM0o2eU-73" value="" style="ellipse;whiteSpace=wrap;html=1;dashed=1;strokeWidth=2;strokeColor=#FF3333;" parent="1" vertex="1">
          <mxGeometry x="-1360.5" y="80" width="463" height="410" as="geometry" />
        </mxCell>
        <mxCell id="x8yFt2Wua3zqLqM0o2eU-75" value="Location" style="rounded=1;whiteSpace=wrap;html=1;gradientColor=#ffd966;fillColor=#fff2cc;strokeColor=#d6b656;" parent="1" vertex="1">
          <mxGeometry x="-1046.75" y="324" width="120" height="30" as="geometry" />
        </mxCell>
        <mxCell id="x8yFt2Wua3zqLqM0o2eU-76" value="Country" style="rounded=1;whiteSpace=wrap;html=1;gradientColor=#ffd966;fillColor=#fff2cc;strokeColor=#d6b656;" parent="1" vertex="1">
          <mxGeometry x="-1313.5" y="346" width="120" height="30" as="geometry" />
        </mxCell>
        <mxCell id="x8yFt2Wua3zqLqM0o2eU-77" value="DecisionMaker" style="rounded=1;whiteSpace=wrap;html=1;gradientColor=#ffd966;fillColor=#fff2cc;strokeColor=#d6b656;" parent="1" vertex="1">
          <mxGeometry x="-1050.75" y="224" width="120" height="30" as="geometry" />
        </mxCell>
        <mxCell id="x8yFt2Wua3zqLqM0o2eU-78" value="Currency" style="rounded=1;whiteSpace=wrap;html=1;gradientColor=#ffd966;fillColor=#fff2cc;strokeColor=#d6b656;" parent="1" vertex="1">
          <mxGeometry x="-1313.5" y="241" width="120" height="30" as="geometry" />
        </mxCell>
        <mxCell id="x8yFt2Wua3zqLqM0o2eU-79" value="PartnerContacts" style="rounded=1;whiteSpace=wrap;html=1;gradientColor=#ffd966;fillColor=#fff2cc;strokeColor=#d6b656;" parent="1" vertex="1">
          <mxGeometry x="-1071.5" y="173" width="120" height="30" as="geometry" />
        </mxCell>
        <mxCell id="x8yFt2Wua3zqLqM0o2eU-80" value="Account Bounded Context" style="text;html=1;strokeColor=none;fillColor=none;align=center;verticalAlign=middle;whiteSpace=wrap;rounded=0;dashed=1;fontSize=18;" parent="1" vertex="1">
          <mxGeometry x="-1216.25" y="100" width="169.5" height="30" as="geometry" />
        </mxCell>
        <mxCell id="x8yFt2Wua3zqLqM0o2eU-81" value="" style="endArrow=classic;html=1;fontSize=18;entryX=0;entryY=0.5;entryDx=0;entryDy=0;" parent="1" target="x8yFt2Wua3zqLqM0o2eU-79" edge="1">
          <mxGeometry width="50" height="50" relative="1" as="geometry">
            <mxPoint x="-1129.5" y="286" as="sourcePoint" />
            <mxPoint x="-1129.5" y="204" as="targetPoint" />
            <Array as="points">
              <mxPoint x="-1129.5" y="188" />
            </Array>
          </mxGeometry>
        </mxCell>
        <mxCell id="x8yFt2Wua3zqLqM0o2eU-82" value="" style="endArrow=classic;html=1;fontSize=18;entryX=0.5;entryY=1;entryDx=0;entryDy=0;exitX=0;exitY=0.5;exitDx=0;exitDy=0;" parent="1" source="x8yFt2Wua3zqLqM0o2eU-74" target="x8yFt2Wua3zqLqM0o2eU-78" edge="1">
          <mxGeometry width="50" height="50" relative="1" as="geometry">
            <mxPoint x="-944.5" y="342" as="sourcePoint" />
            <mxPoint x="-894.5" y="292" as="targetPoint" />
            <Array as="points">
              <mxPoint x="-1251.5" y="299" />
            </Array>
          </mxGeometry>
        </mxCell>
        <mxCell id="x8yFt2Wua3zqLqM0o2eU-83" value="" style="endArrow=classic;html=1;fontSize=18;entryX=0.5;entryY=0;entryDx=0;entryDy=0;exitX=1;exitY=0.5;exitDx=0;exitDy=0;" parent="1" source="x8yFt2Wua3zqLqM0o2eU-74" target="x8yFt2Wua3zqLqM0o2eU-75" edge="1">
          <mxGeometry width="50" height="50" relative="1" as="geometry">
            <mxPoint x="-1181.5" y="309" as="sourcePoint" />
            <mxPoint x="-1241.5" y="268" as="targetPoint" />
            <Array as="points">
              <mxPoint x="-986.5" y="299" />
            </Array>
          </mxGeometry>
        </mxCell>
        <mxCell id="x8yFt2Wua3zqLqM0o2eU-84" value="" style="endArrow=classic;html=1;fontSize=18;exitX=0;exitY=0.75;exitDx=0;exitDy=0;entryX=0.5;entryY=0;entryDx=0;entryDy=0;" parent="1" source="x8yFt2Wua3zqLqM0o2eU-74" target="x8yFt2Wua3zqLqM0o2eU-76" edge="1">
          <mxGeometry width="50" height="50" relative="1" as="geometry">
            <mxPoint x="-1294.5" y="496" as="sourcePoint" />
            <mxPoint x="-1191.5" y="372" as="targetPoint" />
            <Array as="points">
              <mxPoint x="-1251.5" y="307" />
            </Array>
          </mxGeometry>
        </mxCell>
        <mxCell id="x8yFt2Wua3zqLqM0o2eU-87" value="" style="endArrow=classic;html=1;fontSize=18;exitX=0.75;exitY=0;exitDx=0;exitDy=0;entryX=0.004;entryY=0.567;entryDx=0;entryDy=0;entryPerimeter=0;" parent="1" source="x8yFt2Wua3zqLqM0o2eU-74" target="x8yFt2Wua3zqLqM0o2eU-77" edge="1">
          <mxGeometry width="50" height="50" relative="1" as="geometry">
            <mxPoint x="-1119.5" y="292" as="sourcePoint" />
            <mxPoint x="-1068.5" y="233" as="targetPoint" />
            <Array as="points">
              <mxPoint x="-1101.5" y="242" />
            </Array>
          </mxGeometry>
        </mxCell>
        <mxCell id="x8yFt2Wua3zqLqM0o2eU-88" value="DecisionMakerAssigned" style="html=1;outlineConnect=0;whiteSpace=wrap;fillColor=#99ffff;shape=mxgraph.archimate3.event;dashed=1;strokeWidth=2;fontSize=10;" parent="1" vertex="1">
          <mxGeometry x="-1050.75" y="263" width="130.25" height="20" as="geometry" />
        </mxCell>
        <mxCell id="x8yFt2Wua3zqLqM0o2eU-89" value="Currency &lt;br&gt;Assinged" style="html=1;outlineConnect=0;whiteSpace=wrap;fillColor=#99ffff;shape=mxgraph.archimate3.event;dashed=1;strokeWidth=2;fontSize=10;" parent="1" vertex="1">
          <mxGeometry x="-1340.5" y="274.5" width="80" height="27" as="geometry" />
        </mxCell>
        <mxCell id="x8yFt2Wua3zqLqM0o2eU-90" value="LocaltionAdded" style="html=1;outlineConnect=0;whiteSpace=wrap;fillColor=#99ffff;shape=mxgraph.archimate3.event;dashed=1;strokeWidth=2;fontSize=10;" parent="1" vertex="1">
          <mxGeometry x="-1037.5" y="362" width="110.5" height="20" as="geometry" />
        </mxCell>
        <mxCell id="x8yFt2Wua3zqLqM0o2eU-92" value="AccountDeleted" style="html=1;outlineConnect=0;whiteSpace=wrap;shape=mxgraph.archimate3.event;dashed=1;strokeWidth=2;fontSize=10;strokeColor=#B20000;fillColor=#e51400;fontColor=#ffffff;fontStyle=1" parent="1" vertex="1">
          <mxGeometry x="-1188.5" y="353" width="119" height="20" as="geometry" />
        </mxCell>
        <mxCell id="x8yFt2Wua3zqLqM0o2eU-93" value="AccountAdded" style="html=1;outlineConnect=0;whiteSpace=wrap;shape=mxgraph.archimate3.event;dashed=1;strokeWidth=2;fontSize=10;strokeColor=#B20000;fillColor=#e51400;fontColor=#ffffff;fontStyle=1" parent="1" vertex="1">
          <mxGeometry x="-1188.5" y="322" width="119" height="20" as="geometry" />
        </mxCell>
        <mxCell id="x8yFt2Wua3zqLqM0o2eU-94" value="Address&lt;br&gt;Added" style="html=1;outlineConnect=0;whiteSpace=wrap;fillColor=#99ffff;shape=mxgraph.archimate3.event;dashed=1;strokeWidth=2;fontSize=10;" parent="1" vertex="1">
          <mxGeometry x="-1046.5" y="412" width="70" height="26" as="geometry" />
        </mxCell>
        <mxCell id="x8yFt2Wua3zqLqM0o2eU-95" value="Address" style="rounded=1;whiteSpace=wrap;html=1;gradientColor=#ffd966;fillColor=#fff2cc;strokeColor=#d6b656;" parent="1" vertex="1">
          <mxGeometry x="-1186.5" y="412" width="120" height="30" as="geometry" />
        </mxCell>
        <mxCell id="x8yFt2Wua3zqLqM0o2eU-96" value="" style="endArrow=classic;html=1;exitX=0.5;exitY=1;exitDx=0;exitDy=0;entryX=1;entryY=0.5;entryDx=0;entryDy=0;" parent="1" edge="1">
          <mxGeometry width="50" height="50" relative="1" as="geometry">
            <mxPoint x="-1071.5" y="304" as="sourcePoint" />
            <mxPoint x="-1069.5" y="427" as="targetPoint" />
            <Array as="points">
              <mxPoint x="-1050.5" y="304" />
              <mxPoint x="-1050.5" y="362" />
              <mxPoint x="-1050.5" y="427" />
            </Array>
          </mxGeometry>
        </mxCell>
        <mxCell id="x8yFt2Wua3zqLqM0o2eU-97" value="Country&amp;nbsp;&lt;br&gt;Assinged" style="html=1;outlineConnect=0;whiteSpace=wrap;fillColor=#99ffff;shape=mxgraph.archimate3.event;dashed=1;strokeWidth=2;fontSize=10;" parent="1" vertex="1">
          <mxGeometry x="-1293.5" y="388.5" width="80" height="27" as="geometry" />
        </mxCell>
        <mxCell id="x8yFt2Wua3zqLqM0o2eU-98" value="Contacts" style="rounded=1;whiteSpace=wrap;html=1;gradientColor=#ffd966;fillColor=#fff2cc;strokeColor=#d6b656;" parent="1" vertex="1">
          <mxGeometry x="-1311.5" y="166" width="120" height="30" as="geometry" />
        </mxCell>
        <mxCell id="x8yFt2Wua3zqLqM0o2eU-99" value="" style="endArrow=classic;html=1;fontSize=18;entryX=1;entryY=0.5;entryDx=0;entryDy=0;exitX=0.407;exitY=-0.037;exitDx=0;exitDy=0;exitPerimeter=0;" parent="1" target="x8yFt2Wua3zqLqM0o2eU-98" edge="1">
          <mxGeometry width="50" height="50" relative="1" as="geometry">
            <mxPoint x="-1142.66" y="284.89" as="sourcePoint" />
            <mxPoint x="-1061.5" y="193" as="targetPoint" />
            <Array as="points">
              <mxPoint x="-1142.5" y="181" />
            </Array>
          </mxGeometry>
        </mxCell>
        <mxCell id="x8yFt2Wua3zqLqM0o2eU-74" value="Account" style="rounded=1;whiteSpace=wrap;html=1;fontStyle=1;gradientColor=#7ea6e0;fillColor=#dae8fc;strokeColor=#6c8ebf;" parent="1" vertex="1">
          <mxGeometry x="-1191.5" y="284" width="120" height="30" as="geometry" />
        </mxCell>
        <mxCell id="x8yFt2Wua3zqLqM0o2eU-100" value="CustomerContact&lt;br&gt;Added" style="html=1;outlineConnect=0;whiteSpace=wrap;fillColor=#99ffff;shape=mxgraph.archimate3.event;dashed=1;strokeWidth=2;fontSize=10;" parent="1" vertex="1">
          <mxGeometry x="-1308.5" y="202" width="120" height="26" as="geometry" />
        </mxCell>
        <mxCell id="x8yFt2Wua3zqLqM0o2eU-102" value="PartnerContact&lt;br&gt;Added" style="html=1;outlineConnect=0;whiteSpace=wrap;fillColor=#99ffff;shape=mxgraph.archimate3.event;dashed=1;strokeWidth=2;fontSize=10;" parent="1" vertex="1">
          <mxGeometry x="-1076.5" y="142" width="120" height="26" as="geometry" />
        </mxCell>
        <mxCell id="x8yFt2Wua3zqLqM0o2eU-103" value="Address&lt;br&gt;Verified" style="html=1;outlineConnect=0;whiteSpace=wrap;fillColor=#99ffff;shape=mxgraph.archimate3.event;dashed=1;strokeWidth=2;fontSize=10;" parent="1" vertex="1">
          <mxGeometry x="-1166.5" y="454" width="70" height="26" as="geometry" />
        </mxCell>
        <mxCell id="x8yFt2Wua3zqLqM0o2eU-104" value="" style="ellipse;whiteSpace=wrap;html=1;dashed=1;strokeWidth=2;strokeColor=#FF3333;" parent="1" vertex="1">
          <mxGeometry x="-1429.5" y="500" width="616" height="567" as="geometry" />
        </mxCell>
        <mxCell id="x8yFt2Wua3zqLqM0o2eU-105" value="Product" style="rounded=1;whiteSpace=wrap;html=1;gradientColor=#ffd966;fillColor=#fff2cc;strokeColor=#d6b656;" parent="1" vertex="1">
          <mxGeometry x="-1027.5" y="702.5" width="84" height="30" as="geometry" />
        </mxCell>
        <mxCell id="x8yFt2Wua3zqLqM0o2eU-106" value="Account" style="rounded=1;whiteSpace=wrap;html=1;gradientColor=#ffd966;fillColor=#fff2cc;strokeColor=#d6b656;" parent="1" vertex="1">
          <mxGeometry x="-1307.5" y="726" width="100" height="30" as="geometry" />
        </mxCell>
        <mxCell id="x8yFt2Wua3zqLqM0o2eU-107" value="Partner" style="rounded=1;whiteSpace=wrap;html=1;gradientColor=#ffd966;fillColor=#fff2cc;strokeColor=#d6b656;" parent="1" vertex="1">
          <mxGeometry x="-1053.76" y="656" width="100.26" height="30" as="geometry" />
        </mxCell>
        <mxCell id="x8yFt2Wua3zqLqM0o2eU-108" value="PlatformType" style="rounded=1;whiteSpace=wrap;html=1;gradientColor=#ffd966;fillColor=#fff2cc;strokeColor=#d6b656;" parent="1" vertex="1">
          <mxGeometry x="-1289.5" y="624" width="94" height="30" as="geometry" />
        </mxCell>
        <mxCell id="x8yFt2Wua3zqLqM0o2eU-109" value="PartnerContacts" style="rounded=1;whiteSpace=wrap;html=1;gradientColor=#ffd966;fillColor=#fff2cc;strokeColor=#d6b656;" parent="1" vertex="1">
          <mxGeometry x="-1074.5" y="587" width="120" height="30" as="geometry" />
        </mxCell>
        <mxCell id="x8yFt2Wua3zqLqM0o2eU-110" value="Contract Bounded Context" style="text;html=1;strokeColor=none;fillColor=none;align=center;verticalAlign=middle;whiteSpace=wrap;rounded=0;dashed=1;fontSize=18;" parent="1" vertex="1">
          <mxGeometry x="-1202.25" y="514" width="169.5" height="30" as="geometry" />
        </mxCell>
        <mxCell id="x8yFt2Wua3zqLqM0o2eU-111" value="" style="endArrow=classic;html=1;fontSize=18;entryX=0;entryY=0.5;entryDx=0;entryDy=0;" parent="1" target="x8yFt2Wua3zqLqM0o2eU-109" edge="1">
          <mxGeometry width="50" height="50" relative="1" as="geometry">
            <mxPoint x="-1132.5" y="700" as="sourcePoint" />
            <mxPoint x="-1132.5" y="618" as="targetPoint" />
            <Array as="points">
              <mxPoint x="-1132.5" y="602" />
            </Array>
          </mxGeometry>
        </mxCell>
        <mxCell id="x8yFt2Wua3zqLqM0o2eU-112" value="" style="endArrow=classic;html=1;fontSize=18;entryX=1;entryY=0.5;entryDx=0;entryDy=0;" parent="1" target="x8yFt2Wua3zqLqM0o2eU-108" edge="1">
          <mxGeometry width="50" height="50" relative="1" as="geometry">
            <mxPoint x="-1171.5" y="697" as="sourcePoint" />
            <mxPoint x="-1201.5" y="667" as="targetPoint" />
            <Array as="points">
              <mxPoint x="-1171.5" y="639" />
            </Array>
          </mxGeometry>
        </mxCell>
        <mxCell id="x8yFt2Wua3zqLqM0o2eU-113" value="" style="endArrow=classic;html=1;fontSize=18;exitX=1;exitY=0.25;exitDx=0;exitDy=0;" parent="1" source="x8yFt2Wua3zqLqM0o2eU-127" target="x8yFt2Wua3zqLqM0o2eU-105" edge="1">
          <mxGeometry width="50" height="50" relative="1" as="geometry">
            <mxPoint x="-1184.5" y="723" as="sourcePoint" />
            <mxPoint x="-1013.5" y="727" as="targetPoint" />
            <Array as="points">
              <mxPoint x="-1043.5" y="706" />
              <mxPoint x="-1043.5" y="718" />
            </Array>
          </mxGeometry>
        </mxCell>
        <mxCell id="x8yFt2Wua3zqLqM0o2eU-114" value="" style="endArrow=classic;html=1;fontSize=18;exitX=0;exitY=0.75;exitDx=0;exitDy=0;" parent="1" edge="1">
          <mxGeometry width="50" height="50" relative="1" as="geometry">
            <mxPoint x="-1194.5" y="703.5" as="sourcePoint" />
            <mxPoint x="-1256.5" y="727" as="targetPoint" />
            <Array as="points">
              <mxPoint x="-1256.5" y="704" />
            </Array>
          </mxGeometry>
        </mxCell>
        <mxCell id="x8yFt2Wua3zqLqM0o2eU-115" value="" style="endArrow=classic;html=1;fontSize=18;exitX=0.75;exitY=0;exitDx=0;exitDy=0;entryX=0.004;entryY=0.567;entryDx=0;entryDy=0;entryPerimeter=0;" parent="1" source="x8yFt2Wua3zqLqM0o2eU-127" target="x8yFt2Wua3zqLqM0o2eU-107" edge="1">
          <mxGeometry width="50" height="50" relative="1" as="geometry">
            <mxPoint x="-1122.5" y="706" as="sourcePoint" />
            <mxPoint x="-1071.5" y="647" as="targetPoint" />
            <Array as="points">
              <mxPoint x="-1104.5" y="673" />
            </Array>
          </mxGeometry>
        </mxCell>
        <mxCell id="x8yFt2Wua3zqLqM0o2eU-116" value="Partner&lt;br&gt;Assigned" style="html=1;outlineConnect=0;whiteSpace=wrap;fillColor=#99ffff;shape=mxgraph.archimate3.event;dashed=1;strokeWidth=2;fontSize=10;align=center;" parent="1" vertex="1">
          <mxGeometry x="-944.5" y="657.5" width="80.26" height="29.5" as="geometry" />
        </mxCell>
        <mxCell id="x8yFt2Wua3zqLqM0o2eU-117" value="PlatformType&lt;br&gt;Selected" style="html=1;outlineConnect=0;whiteSpace=wrap;fillColor=#99ffff;shape=mxgraph.archimate3.event;dashed=1;strokeWidth=2;fontSize=10;" parent="1" vertex="1">
          <mxGeometry x="-1376.5" y="628" width="85" height="27" as="geometry" />
        </mxCell>
        <mxCell id="x8yFt2Wua3zqLqM0o2eU-118" value="ProductLineItem&lt;br&gt;Added" style="html=1;outlineConnect=0;whiteSpace=wrap;fillColor=#99ffff;shape=mxgraph.archimate3.event;dashed=1;strokeWidth=2;fontSize=10;" parent="1" vertex="1">
          <mxGeometry x="-1043.75" y="736" width="110.5" height="29" as="geometry" />
        </mxCell>
        <mxCell id="x8yFt2Wua3zqLqM0o2eU-119" value="ContractOrderEntry" style="html=1;outlineConnect=0;whiteSpace=wrap;shape=mxgraph.archimate3.event;dashed=1;strokeWidth=2;fontSize=10;strokeColor=#B20000;fillColor=#e51400;fontColor=#ffffff;fontStyle=1" parent="1" vertex="1">
          <mxGeometry x="-1191.5" y="743" width="119" height="20" as="geometry" />
        </mxCell>
        <mxCell id="x8yFt2Wua3zqLqM0o2eU-120" value="ContractUpdated" style="html=1;outlineConnect=0;whiteSpace=wrap;shape=mxgraph.archimate3.event;dashed=1;strokeWidth=2;fontSize=10;strokeColor=#B20000;fillColor=#e51400;fontColor=#ffffff;fontStyle=1" parent="1" vertex="1">
          <mxGeometry x="-1190.5" y="841" width="119" height="20" as="geometry" />
        </mxCell>
        <mxCell id="x8yFt2Wua3zqLqM0o2eU-122" value="InvoiceGroup" style="rounded=1;whiteSpace=wrap;html=1;gradientColor=#ffd966;fillColor=#fff2cc;strokeColor=#d6b656;" parent="1" vertex="1">
          <mxGeometry x="-1192.5" y="870" width="120" height="30" as="geometry" />
        </mxCell>
        <mxCell id="x8yFt2Wua3zqLqM0o2eU-123" value="" style="endArrow=classic;html=1;exitX=0.5;exitY=1;exitDx=0;exitDy=0;entryX=1;entryY=0.5;entryDx=0;entryDy=0;" parent="1" target="x8yFt2Wua3zqLqM0o2eU-122" edge="1">
          <mxGeometry width="50" height="50" relative="1" as="geometry">
            <mxPoint x="-1074.5" y="718" as="sourcePoint" />
            <mxPoint x="-1072.5" y="841" as="targetPoint" />
            <Array as="points">
              <mxPoint x="-1053.5" y="718" />
              <mxPoint x="-1053.5" y="885" />
            </Array>
          </mxGeometry>
        </mxCell>
        <mxCell id="x8yFt2Wua3zqLqM0o2eU-124" value="Account&lt;br&gt;Selected" style="html=1;outlineConnect=0;whiteSpace=wrap;fillColor=#99ffff;shape=mxgraph.archimate3.event;dashed=1;strokeWidth=2;fontSize=10;" parent="1" vertex="1">
          <mxGeometry x="-1413.5" y="727.5" width="101" height="27" as="geometry" />
        </mxCell>
        <mxCell id="x8yFt2Wua3zqLqM0o2eU-125" value="SalesPerson" style="rounded=1;whiteSpace=wrap;html=1;gradientColor=#ffd966;fillColor=#fff2cc;strokeColor=#d6b656;" parent="1" vertex="1">
          <mxGeometry x="-1300.5" y="580" width="120" height="30" as="geometry" />
        </mxCell>
        <mxCell id="x8yFt2Wua3zqLqM0o2eU-126" value="" style="endArrow=classic;html=1;fontSize=18;entryX=1;entryY=0.5;entryDx=0;entryDy=0;exitX=0.407;exitY=-0.037;exitDx=0;exitDy=0;exitPerimeter=0;" parent="1" target="x8yFt2Wua3zqLqM0o2eU-125" edge="1">
          <mxGeometry width="50" height="50" relative="1" as="geometry">
            <mxPoint x="-1145.66" y="698.8899999999999" as="sourcePoint" />
            <mxPoint x="-1064.5" y="607" as="targetPoint" />
            <Array as="points">
              <mxPoint x="-1145.5" y="595" />
            </Array>
          </mxGeometry>
        </mxCell>
        <mxCell id="x8yFt2Wua3zqLqM0o2eU-140" style="edgeStyle=orthogonalEdgeStyle;rounded=0;orthogonalLoop=1;jettySize=auto;html=1;entryX=0;entryY=0.5;entryDx=0;entryDy=0;fontSize=16;" parent="1" source="x8yFt2Wua3zqLqM0o2eU-127" target="x8yFt2Wua3zqLqM0o2eU-138" edge="1">
          <mxGeometry relative="1" as="geometry">
            <Array as="points">
              <mxPoint x="-1063.5" y="713" />
              <mxPoint x="-1063.5" y="792" />
            </Array>
          </mxGeometry>
        </mxCell>
        <mxCell id="x8yFt2Wua3zqLqM0o2eU-143" style="edgeStyle=orthogonalEdgeStyle;rounded=0;orthogonalLoop=1;jettySize=auto;html=1;entryX=0;entryY=0.25;entryDx=0;entryDy=0;fontSize=16;" parent="1" source="x8yFt2Wua3zqLqM0o2eU-127" target="x8yFt2Wua3zqLqM0o2eU-141" edge="1">
          <mxGeometry relative="1" as="geometry">
            <Array as="points">
              <mxPoint x="-1063.5" y="713" />
              <mxPoint x="-1063.5" y="826" />
            </Array>
          </mxGeometry>
        </mxCell>
        <mxCell id="xI-_J-oyyOmIZLtXHt4S-10" style="edgeStyle=orthogonalEdgeStyle;rounded=0;orthogonalLoop=1;jettySize=auto;html=1;entryX=1;entryY=0.5;entryDx=0;entryDy=0;" parent="1" source="x8yFt2Wua3zqLqM0o2eU-127" target="xI-_J-oyyOmIZLtXHt4S-3" edge="1">
          <mxGeometry relative="1" as="geometry">
            <Array as="points">
              <mxPoint x="-1203.5" y="713" />
              <mxPoint x="-1203.5" y="814" />
            </Array>
          </mxGeometry>
        </mxCell>
        <mxCell id="xI-_J-oyyOmIZLtXHt4S-11" style="edgeStyle=orthogonalEdgeStyle;rounded=0;orthogonalLoop=1;jettySize=auto;html=1;entryX=1;entryY=0.5;entryDx=0;entryDy=0;" parent="1" source="x8yFt2Wua3zqLqM0o2eU-127" target="xI-_J-oyyOmIZLtXHt4S-4" edge="1">
          <mxGeometry relative="1" as="geometry">
            <Array as="points">
              <mxPoint x="-1203.5" y="713" />
              <mxPoint x="-1203.5" y="859" />
            </Array>
          </mxGeometry>
        </mxCell>
        <mxCell id="xI-_J-oyyOmIZLtXHt4S-12" style="edgeStyle=orthogonalEdgeStyle;rounded=0;orthogonalLoop=1;jettySize=auto;html=1;entryX=1;entryY=0.5;entryDx=0;entryDy=0;" parent="1" source="x8yFt2Wua3zqLqM0o2eU-127" target="xI-_J-oyyOmIZLtXHt4S-5" edge="1">
          <mxGeometry relative="1" as="geometry">
            <Array as="points">
              <mxPoint x="-1203.5" y="713" />
              <mxPoint x="-1203.5" y="904" />
            </Array>
          </mxGeometry>
        </mxCell>
        <mxCell id="xI-_J-oyyOmIZLtXHt4S-13" style="edgeStyle=orthogonalEdgeStyle;rounded=0;orthogonalLoop=1;jettySize=auto;html=1;entryX=1;entryY=0.5;entryDx=0;entryDy=0;" parent="1" source="x8yFt2Wua3zqLqM0o2eU-127" target="xI-_J-oyyOmIZLtXHt4S-6" edge="1">
          <mxGeometry relative="1" as="geometry">
            <Array as="points">
              <mxPoint x="-1203.5" y="713" />
              <mxPoint x="-1203.5" y="949" />
            </Array>
          </mxGeometry>
        </mxCell>
        <mxCell id="xI-_J-oyyOmIZLtXHt4S-22" style="edgeStyle=orthogonalEdgeStyle;rounded=1;orthogonalLoop=1;jettySize=auto;html=1;entryX=1;entryY=0.5;entryDx=0;entryDy=0;" parent="1" source="x8yFt2Wua3zqLqM0o2eU-127" target="xI-_J-oyyOmIZLtXHt4S-21" edge="1">
          <mxGeometry relative="1" as="geometry">
            <Array as="points">
              <mxPoint x="-1179.5" y="677" />
            </Array>
          </mxGeometry>
        </mxCell>
        <mxCell id="xI-_J-oyyOmIZLtXHt4S-26" style="edgeStyle=orthogonalEdgeStyle;rounded=1;orthogonalLoop=1;jettySize=auto;html=1;entryX=1;entryY=0.5;entryDx=0;entryDy=0;exitX=1;exitY=0.5;exitDx=0;exitDy=0;exitPerimeter=0;" parent="1" source="x8yFt2Wua3zqLqM0o2eU-127" target="xI-_J-oyyOmIZLtXHt4S-24" edge="1">
          <mxGeometry relative="1" as="geometry">
            <Array as="points">
              <mxPoint x="-1053.5" y="713" />
              <mxPoint x="-1053.5" y="958" />
            </Array>
          </mxGeometry>
        </mxCell>
        <mxCell id="xI-_J-oyyOmIZLtXHt4S-27" style="edgeStyle=orthogonalEdgeStyle;rounded=1;orthogonalLoop=1;jettySize=auto;html=1;entryX=0;entryY=0.5;entryDx=0;entryDy=0;" parent="1" source="x8yFt2Wua3zqLqM0o2eU-127" target="xI-_J-oyyOmIZLtXHt4S-17" edge="1">
          <mxGeometry relative="1" as="geometry">
            <Array as="points">
              <mxPoint x="-1063.5" y="713" />
              <mxPoint x="-1063.5" y="915" />
            </Array>
          </mxGeometry>
        </mxCell>
        <mxCell id="xI-_J-oyyOmIZLtXHt4S-28" style="edgeStyle=orthogonalEdgeStyle;rounded=1;orthogonalLoop=1;jettySize=auto;html=1;entryX=0;entryY=0.5;entryDx=0;entryDy=0;" parent="1" source="x8yFt2Wua3zqLqM0o2eU-127" target="xI-_J-oyyOmIZLtXHt4S-1" edge="1">
          <mxGeometry relative="1" as="geometry">
            <Array as="points">
              <mxPoint x="-1063.5" y="713" />
              <mxPoint x="-1063.5" y="874" />
            </Array>
          </mxGeometry>
        </mxCell>
        <mxCell id="xI-_J-oyyOmIZLtXHt4S-60" style="edgeStyle=orthogonalEdgeStyle;rounded=1;orthogonalLoop=1;jettySize=auto;html=1;entryX=0;entryY=0.5;entryDx=0;entryDy=0;" parent="1" edge="1">
          <mxGeometry relative="1" as="geometry">
            <mxPoint x="-1074.5" y="713" as="sourcePoint" />
            <mxPoint x="-1037.88" y="955" as="targetPoint" />
            <Array as="points">
              <mxPoint x="-1063.5" y="713" />
              <mxPoint x="-1063.5" y="955" />
            </Array>
          </mxGeometry>
        </mxCell>
        <mxCell id="xI-_J-oyyOmIZLtXHt4S-61" style="edgeStyle=orthogonalEdgeStyle;rounded=1;orthogonalLoop=1;jettySize=auto;html=1;entryX=1;entryY=0.5;entryDx=0;entryDy=0;exitX=1;exitY=0.5;exitDx=0;exitDy=0;" parent="1" target="xI-_J-oyyOmIZLtXHt4S-57" edge="1">
          <mxGeometry relative="1" as="geometry">
            <mxPoint x="-1074.5" y="716" as="sourcePoint" />
            <mxPoint x="-1077.12" y="1032.5" as="targetPoint" />
            <Array as="points">
              <mxPoint x="-1054.5" y="716" />
              <mxPoint x="-1054.5" y="1023" />
            </Array>
          </mxGeometry>
        </mxCell>
        <mxCell id="x8yFt2Wua3zqLqM0o2eU-127" value="Contract" style="rounded=1;whiteSpace=wrap;html=1;fontStyle=1;gradientColor=#7ea6e0;fillColor=#dae8fc;strokeColor=#6c8ebf;" parent="1" vertex="1">
          <mxGeometry x="-1194.5" y="698" width="120" height="30" as="geometry" />
        </mxCell>
        <mxCell id="x8yFt2Wua3zqLqM0o2eU-128" value="SalesPerson&lt;br&gt;Assigned" style="html=1;outlineConnect=0;whiteSpace=wrap;fillColor=#99ffff;shape=mxgraph.archimate3.event;dashed=1;strokeWidth=2;fontSize=10;" parent="1" vertex="1">
          <mxGeometry x="-1294.5" y="551" width="120" height="26" as="geometry" />
        </mxCell>
        <mxCell id="x8yFt2Wua3zqLqM0o2eU-129" value="PartnerContact&lt;br&gt;Added" style="html=1;outlineConnect=0;whiteSpace=wrap;fillColor=#99ffff;shape=mxgraph.archimate3.event;dashed=1;strokeWidth=2;fontSize=10;" parent="1" vertex="1">
          <mxGeometry x="-1075.5" y="556" width="120" height="26" as="geometry" />
        </mxCell>
        <mxCell id="x8yFt2Wua3zqLqM0o2eU-130" value="InvoiceGroup&lt;br&gt;Selected" style="html=1;outlineConnect=0;whiteSpace=wrap;fillColor=#99ffff;shape=mxgraph.archimate3.event;dashed=1;strokeWidth=2;fontSize=10;" parent="1" vertex="1">
          <mxGeometry x="-1193.01" y="904" width="123.51" height="33" as="geometry" />
        </mxCell>
        <mxCell id="x8yFt2Wua3zqLqM0o2eU-131" value="PartnerRelationship&lt;br&gt;Established" style="html=1;outlineConnect=0;whiteSpace=wrap;fillColor=#99ffff;shape=mxgraph.archimate3.event;dashed=1;strokeWidth=2;fontSize=10;" parent="1" vertex="1">
          <mxGeometry x="-1065.88" y="624" width="142.38" height="29" as="geometry" />
        </mxCell>
        <mxCell id="x8yFt2Wua3zqLqM0o2eU-134" value="NewAccount Added" style="html=1;outlineConnect=0;whiteSpace=wrap;fillColor=#99ffff;shape=mxgraph.archimate3.event;dashed=1;strokeWidth=2;fontSize=10;" parent="1" vertex="1">
          <mxGeometry x="-1301.5" y="760" width="90" height="27" as="geometry" />
        </mxCell>
        <mxCell id="x8yFt2Wua3zqLqM0o2eU-137" value="ProductLineItem&lt;br&gt;Deleted" style="html=1;outlineConnect=0;whiteSpace=wrap;fillColor=#99ffff;shape=mxgraph.archimate3.event;dashed=1;strokeWidth=2;fontSize=10;align=center;" parent="1" vertex="1">
          <mxGeometry x="-940.25" y="703.5" width="109.75" height="29.5" as="geometry" />
        </mxCell>
        <mxCell id="x8yFt2Wua3zqLqM0o2eU-138" value="CloudLink&lt;br&gt;UserAccount" style="rounded=1;whiteSpace=wrap;html=1;gradientColor=#ffd966;fillColor=#fff2cc;strokeColor=#d6b656;" parent="1" vertex="1">
          <mxGeometry x="-1040.5" y="777" width="100" height="30" as="geometry" />
        </mxCell>
        <mxCell id="x8yFt2Wua3zqLqM0o2eU-139" value="CLAccount&lt;br&gt;Synched" style="html=1;outlineConnect=0;whiteSpace=wrap;fillColor=#99ffff;shape=mxgraph.archimate3.event;dashed=1;strokeWidth=2;fontSize=10;align=center;" parent="1" vertex="1">
          <mxGeometry x="-930.51" y="777" width="80.26" height="29.5" as="geometry" />
        </mxCell>
        <mxCell id="x8yFt2Wua3zqLqM0o2eU-141" value="AddOnFeatures" style="rounded=1;whiteSpace=wrap;html=1;gradientColor=#ffd966;fillColor=#fff2cc;strokeColor=#d6b656;" parent="1" vertex="1">
          <mxGeometry x="-1040.5" y="818" width="100" height="30" as="geometry" />
        </mxCell>
        <mxCell id="x8yFt2Wua3zqLqM0o2eU-142" value="AddOnFeatures&lt;br&gt;Activated" style="html=1;outlineConnect=0;whiteSpace=wrap;fillColor=#99ffff;shape=mxgraph.archimate3.event;dashed=1;strokeWidth=2;fontSize=10;align=center;" parent="1" vertex="1">
          <mxGeometry x="-936" y="817" width="99.5" height="29.5" as="geometry" />
        </mxCell>
        <mxCell id="xI-_J-oyyOmIZLtXHt4S-1" value="AutoAttendant&lt;br&gt;Profile" style="rounded=1;whiteSpace=wrap;html=1;gradientColor=#ffd966;fillColor=#fff2cc;strokeColor=#d6b656;" parent="1" vertex="1">
          <mxGeometry x="-1038.25" y="859" width="94.75" height="30" as="geometry" />
        </mxCell>
        <mxCell id="xI-_J-oyyOmIZLtXHt4S-2" value="AutoAttendant&lt;br&gt;Created" style="html=1;outlineConnect=0;whiteSpace=wrap;fillColor=#99ffff;shape=mxgraph.archimate3.event;dashed=1;strokeWidth=2;fontSize=10;align=center;" parent="1" vertex="1">
          <mxGeometry x="-941.25" y="859" width="99.5" height="29.5" as="geometry" />
        </mxCell>
        <mxCell id="xI-_J-oyyOmIZLtXHt4S-3" value="Site" style="rounded=1;whiteSpace=wrap;html=1;gradientColor=#ffd966;fillColor=#fff2cc;strokeColor=#d6b656;" parent="1" vertex="1">
          <mxGeometry x="-1295.5" y="799" width="78" height="30" as="geometry" />
        </mxCell>
        <mxCell id="xI-_J-oyyOmIZLtXHt4S-4" value="Partition" style="rounded=1;whiteSpace=wrap;html=1;gradientColor=#ffd966;fillColor=#fff2cc;strokeColor=#d6b656;" parent="1" vertex="1">
          <mxGeometry x="-1295.5" y="844" width="78" height="30" as="geometry" />
        </mxCell>
        <mxCell id="xI-_J-oyyOmIZLtXHt4S-5" value="PBX&lt;br&gt;Instance" style="rounded=1;whiteSpace=wrap;html=1;gradientColor=#ffd966;fillColor=#fff2cc;strokeColor=#d6b656;" parent="1" vertex="1">
          <mxGeometry x="-1295.5" y="889" width="77" height="30" as="geometry" />
        </mxCell>
        <mxCell id="xI-_J-oyyOmIZLtXHt4S-6" value="NRRPrice" style="rounded=1;whiteSpace=wrap;html=1;gradientColor=#ffd966;fillColor=#fff2cc;strokeColor=#d6b656;" parent="1" vertex="1">
          <mxGeometry x="-1293.5" y="934" width="77" height="30" as="geometry" />
        </mxCell>
        <mxCell id="xI-_J-oyyOmIZLtXHt4S-7" value="Site &lt;br&gt;Created" style="html=1;outlineConnect=0;whiteSpace=wrap;fillColor=#99ffff;shape=mxgraph.archimate3.event;dashed=1;strokeWidth=2;fontSize=10;" parent="1" vertex="1">
          <mxGeometry x="-1397.5" y="801" width="90" height="27" as="geometry" />
        </mxCell>
        <mxCell id="xI-_J-oyyOmIZLtXHt4S-8" value="Partiition&lt;br&gt;Created" style="html=1;outlineConnect=0;whiteSpace=wrap;fillColor=#99ffff;shape=mxgraph.archimate3.event;dashed=1;strokeWidth=2;fontSize=10;" parent="1" vertex="1">
          <mxGeometry x="-1397.5" y="847" width="90" height="27" as="geometry" />
        </mxCell>
        <mxCell id="xI-_J-oyyOmIZLtXHt4S-9" value="PBXInstance&lt;br&gt;Attached" style="html=1;outlineConnect=0;whiteSpace=wrap;fillColor=#99ffff;shape=mxgraph.archimate3.event;dashed=1;strokeWidth=2;fontSize=10;" parent="1" vertex="1">
          <mxGeometry x="-1384.5" y="889" width="83" height="27" as="geometry" />
        </mxCell>
        <mxCell id="xI-_J-oyyOmIZLtXHt4S-14" value="NRRPrice&lt;br&gt;Entered" style="html=1;outlineConnect=0;whiteSpace=wrap;fillColor=#99ffff;shape=mxgraph.archimate3.event;dashed=1;strokeWidth=2;fontSize=10;" parent="1" vertex="1">
          <mxGeometry x="-1360.5" y="934" width="64" height="27" as="geometry" />
        </mxCell>
        <mxCell id="xI-_J-oyyOmIZLtXHt4S-15" value="ContractDeclined" style="html=1;outlineConnect=0;whiteSpace=wrap;shape=mxgraph.archimate3.event;dashed=1;strokeWidth=2;fontSize=10;strokeColor=#B20000;fillColor=#e51400;fontColor=#ffffff;fontStyle=1" parent="1" vertex="1">
          <mxGeometry x="-1190.5" y="808" width="119" height="20" as="geometry" />
        </mxCell>
        <mxCell id="xI-_J-oyyOmIZLtXHt4S-16" value="ContractConfirmed" style="html=1;outlineConnect=0;whiteSpace=wrap;shape=mxgraph.archimate3.event;dashed=1;strokeWidth=2;fontSize=10;strokeColor=#B20000;fillColor=#e51400;fontColor=#ffffff;fontStyle=1" parent="1" vertex="1">
          <mxGeometry x="-1190.5" y="775" width="119" height="20" as="geometry" />
        </mxCell>
        <mxCell id="xI-_J-oyyOmIZLtXHt4S-17" value="Compliance" style="rounded=1;whiteSpace=wrap;html=1;gradientColor=#ffd966;fillColor=#fff2cc;strokeColor=#d6b656;" parent="1" vertex="1">
          <mxGeometry x="-1038.87" y="900" width="94.75" height="30" as="geometry" />
        </mxCell>
        <mxCell id="xI-_J-oyyOmIZLtXHt4S-18" value="Compliance&lt;br&gt;Satisfied" style="html=1;outlineConnect=0;whiteSpace=wrap;fillColor=#99ffff;shape=mxgraph.archimate3.event;dashed=1;strokeWidth=2;fontSize=10;align=center;" parent="1" vertex="1">
          <mxGeometry x="-941.25" y="901" width="84.87" height="29.5" as="geometry" />
        </mxCell>
        <mxCell id="xI-_J-oyyOmIZLtXHt4S-21" value="ContractTerm" style="rounded=1;whiteSpace=wrap;html=1;gradientColor=#ffd966;fillColor=#fff2cc;strokeColor=#d6b656;" parent="1" vertex="1">
          <mxGeometry x="-1289.5" y="662" width="94" height="30" as="geometry" />
        </mxCell>
        <mxCell id="xI-_J-oyyOmIZLtXHt4S-23" value="ContractTerm&lt;br&gt;Updated" style="html=1;outlineConnect=0;whiteSpace=wrap;fillColor=#99ffff;shape=mxgraph.archimate3.event;dashed=1;strokeWidth=2;fontSize=10;" parent="1" vertex="1">
          <mxGeometry x="-1378.5" y="671" width="83" height="27" as="geometry" />
        </mxCell>
        <mxCell id="xI-_J-oyyOmIZLtXHt4S-24" value="EmailNotifications" style="rounded=1;whiteSpace=wrap;html=1;gradientColor=#ffd966;fillColor=#fff2cc;strokeColor=#d6b656;" parent="1" vertex="1">
          <mxGeometry x="-1191.25" y="943" width="120" height="30" as="geometry" />
        </mxCell>
        <mxCell id="xI-_J-oyyOmIZLtXHt4S-25" value="DMEmailNotifications&lt;br&gt;Enabled" style="html=1;outlineConnect=0;whiteSpace=wrap;fillColor=#99ffff;shape=mxgraph.archimate3.event;dashed=1;strokeWidth=2;fontSize=10;" parent="1" vertex="1">
          <mxGeometry x="-1191.25" y="979" width="129.25" height="28" as="geometry" />
        </mxCell>
        <mxCell id="xI-_J-oyyOmIZLtXHt4S-29" value="" style="ellipse;whiteSpace=wrap;html=1;dashed=1;strokeWidth=2;strokeColor=#FF3333;" parent="1" vertex="1">
          <mxGeometry x="-792.5" y="573" width="463" height="410" as="geometry" />
        </mxCell>
        <mxCell id="xI-_J-oyyOmIZLtXHt4S-30" value="ContractPercentage" style="rounded=1;whiteSpace=wrap;html=1;gradientColor=#ffd966;fillColor=#fff2cc;strokeColor=#d6b656;" parent="1" vertex="1">
          <mxGeometry x="-478.75" y="817" width="120" height="30" as="geometry" />
        </mxCell>
        <mxCell id="xI-_J-oyyOmIZLtXHt4S-31" value="ServiceCommittment&lt;br&gt;Date" style="rounded=1;whiteSpace=wrap;html=1;gradientColor=#ffd966;fillColor=#fff2cc;strokeColor=#d6b656;" parent="1" vertex="1">
          <mxGeometry x="-745.5" y="839" width="120" height="30" as="geometry" />
        </mxCell>
        <mxCell id="xI-_J-oyyOmIZLtXHt4S-32" value="ContractDocument" style="rounded=1;whiteSpace=wrap;html=1;gradientColor=#ffd966;fillColor=#fff2cc;strokeColor=#d6b656;" parent="1" vertex="1">
          <mxGeometry x="-482.75" y="717" width="120" height="30" as="geometry" />
        </mxCell>
        <mxCell id="xI-_J-oyyOmIZLtXHt4S-33" value="ContractDuration" style="rounded=1;whiteSpace=wrap;html=1;gradientColor=#ffd966;fillColor=#fff2cc;strokeColor=#d6b656;" parent="1" vertex="1">
          <mxGeometry x="-745.5" y="747" width="120" height="30" as="geometry" />
        </mxCell>
        <mxCell id="xI-_J-oyyOmIZLtXHt4S-34" value="OpportunityNumber" style="rounded=1;whiteSpace=wrap;html=1;gradientColor=#ffd966;fillColor=#fff2cc;strokeColor=#d6b656;" parent="1" vertex="1">
          <mxGeometry x="-516.5" y="654" width="120" height="30" as="geometry" />
        </mxCell>
        <mxCell id="xI-_J-oyyOmIZLtXHt4S-35" value="ContractTerm Bounded Context" style="text;html=1;strokeColor=none;fillColor=none;align=center;verticalAlign=middle;whiteSpace=wrap;rounded=0;dashed=1;fontSize=18;" parent="1" vertex="1">
          <mxGeometry x="-648.25" y="593" width="169.5" height="30" as="geometry" />
        </mxCell>
        <mxCell id="xI-_J-oyyOmIZLtXHt4S-36" value="" style="endArrow=classic;html=1;fontSize=18;entryX=0;entryY=0.5;entryDx=0;entryDy=0;" parent="1" target="xI-_J-oyyOmIZLtXHt4S-34" edge="1">
          <mxGeometry width="50" height="50" relative="1" as="geometry">
            <mxPoint x="-561.5" y="779" as="sourcePoint" />
            <mxPoint x="-561.5" y="697" as="targetPoint" />
            <Array as="points">
              <mxPoint x="-562.5" y="669" />
            </Array>
          </mxGeometry>
        </mxCell>
        <mxCell id="xI-_J-oyyOmIZLtXHt4S-37" value="" style="endArrow=classic;html=1;fontSize=18;entryX=0.5;entryY=1;entryDx=0;entryDy=0;exitX=0;exitY=0.5;exitDx=0;exitDy=0;" parent="1" source="xI-_J-oyyOmIZLtXHt4S-52" target="xI-_J-oyyOmIZLtXHt4S-33" edge="1">
          <mxGeometry width="50" height="50" relative="1" as="geometry">
            <mxPoint x="-376.5" y="835" as="sourcePoint" />
            <mxPoint x="-326.5" y="785" as="targetPoint" />
            <Array as="points">
              <mxPoint x="-683.5" y="792" />
            </Array>
          </mxGeometry>
        </mxCell>
        <mxCell id="xI-_J-oyyOmIZLtXHt4S-38" value="" style="endArrow=classic;html=1;fontSize=18;entryX=0.5;entryY=0;entryDx=0;entryDy=0;exitX=1;exitY=0.5;exitDx=0;exitDy=0;" parent="1" source="xI-_J-oyyOmIZLtXHt4S-52" target="xI-_J-oyyOmIZLtXHt4S-30" edge="1">
          <mxGeometry width="50" height="50" relative="1" as="geometry">
            <mxPoint x="-613.5" y="802" as="sourcePoint" />
            <mxPoint x="-673.5" y="761" as="targetPoint" />
            <Array as="points">
              <mxPoint x="-418.5" y="792" />
            </Array>
          </mxGeometry>
        </mxCell>
        <mxCell id="xI-_J-oyyOmIZLtXHt4S-39" value="" style="endArrow=classic;html=1;fontSize=18;exitX=0;exitY=0.75;exitDx=0;exitDy=0;entryX=0.5;entryY=0;entryDx=0;entryDy=0;" parent="1" source="xI-_J-oyyOmIZLtXHt4S-52" target="xI-_J-oyyOmIZLtXHt4S-31" edge="1">
          <mxGeometry width="50" height="50" relative="1" as="geometry">
            <mxPoint x="-726.5" y="989" as="sourcePoint" />
            <mxPoint x="-623.5" y="865" as="targetPoint" />
            <Array as="points">
              <mxPoint x="-683.5" y="800" />
            </Array>
          </mxGeometry>
        </mxCell>
        <mxCell id="xI-_J-oyyOmIZLtXHt4S-40" value="" style="endArrow=classic;html=1;fontSize=18;exitX=0.75;exitY=0;exitDx=0;exitDy=0;entryX=0.004;entryY=0.567;entryDx=0;entryDy=0;entryPerimeter=0;" parent="1" source="xI-_J-oyyOmIZLtXHt4S-52" target="xI-_J-oyyOmIZLtXHt4S-32" edge="1">
          <mxGeometry width="50" height="50" relative="1" as="geometry">
            <mxPoint x="-551.5" y="785" as="sourcePoint" />
            <mxPoint x="-500.5" y="726" as="targetPoint" />
            <Array as="points">
              <mxPoint x="-533.5" y="735" />
            </Array>
          </mxGeometry>
        </mxCell>
        <mxCell id="xI-_J-oyyOmIZLtXHt4S-41" value="ContractDocument&lt;br&gt;Uploaded" style="html=1;outlineConnect=0;whiteSpace=wrap;fillColor=#99ffff;shape=mxgraph.archimate3.event;dashed=1;strokeWidth=2;fontSize=10;" parent="1" vertex="1">
          <mxGeometry x="-482.75" y="751" width="130.25" height="28" as="geometry" />
        </mxCell>
        <mxCell id="xI-_J-oyyOmIZLtXHt4S-42" value="ContractDuration&lt;br&gt;Entered" style="html=1;outlineConnect=0;whiteSpace=wrap;fillColor=#99ffff;shape=mxgraph.archimate3.event;dashed=1;strokeWidth=2;fontSize=10;" parent="1" vertex="1">
          <mxGeometry x="-787.5" y="781" width="100" height="27" as="geometry" />
        </mxCell>
        <mxCell id="xI-_J-oyyOmIZLtXHt4S-43" value="ContractPercentage&lt;br&gt;Committed" style="html=1;outlineConnect=0;whiteSpace=wrap;fillColor=#99ffff;shape=mxgraph.archimate3.event;dashed=1;strokeWidth=2;fontSize=10;" parent="1" vertex="1">
          <mxGeometry x="-469.5" y="855" width="110.5" height="24" as="geometry" />
        </mxCell>
        <mxCell id="xI-_J-oyyOmIZLtXHt4S-44" value="ContractTermsUpdated" style="html=1;outlineConnect=0;whiteSpace=wrap;shape=mxgraph.archimate3.event;dashed=1;strokeWidth=2;fontSize=10;strokeColor=#B20000;fillColor=#e51400;fontColor=#ffffff;fontStyle=1" parent="1" vertex="1">
          <mxGeometry x="-621.5" y="846" width="138" height="20" as="geometry" />
        </mxCell>
        <mxCell id="xI-_J-oyyOmIZLtXHt4S-45" value="ContractTermAdded" style="html=1;outlineConnect=0;whiteSpace=wrap;shape=mxgraph.archimate3.event;dashed=1;strokeWidth=2;fontSize=10;strokeColor=#B20000;fillColor=#e51400;fontColor=#ffffff;fontStyle=1" parent="1" vertex="1">
          <mxGeometry x="-620.5" y="815" width="119" height="20" as="geometry" />
        </mxCell>
        <mxCell id="xI-_J-oyyOmIZLtXHt4S-47" value="AutoProvision" style="rounded=1;whiteSpace=wrap;html=1;gradientColor=#ffd966;fillColor=#fff2cc;strokeColor=#d6b656;" parent="1" vertex="1">
          <mxGeometry x="-618.5" y="905" width="120" height="30" as="geometry" />
        </mxCell>
        <mxCell id="xI-_J-oyyOmIZLtXHt4S-48" value="" style="endArrow=classic;html=1;exitX=0.5;exitY=1;exitDx=0;exitDy=0;entryX=1;entryY=0.5;entryDx=0;entryDy=0;" parent="1" edge="1">
          <mxGeometry width="50" height="50" relative="1" as="geometry">
            <mxPoint x="-503.5" y="797" as="sourcePoint" />
            <mxPoint x="-501.5" y="920" as="targetPoint" />
            <Array as="points">
              <mxPoint x="-482.5" y="797" />
              <mxPoint x="-482.5" y="855" />
              <mxPoint x="-482.5" y="920" />
            </Array>
          </mxGeometry>
        </mxCell>
        <mxCell id="xI-_J-oyyOmIZLtXHt4S-49" value="ServiceCommittment&lt;br&gt;DateEntered" style="html=1;outlineConnect=0;whiteSpace=wrap;fillColor=#99ffff;shape=mxgraph.archimate3.event;dashed=1;strokeWidth=2;fontSize=10;" parent="1" vertex="1">
          <mxGeometry x="-745.5" y="876.5" width="113" height="27" as="geometry" />
        </mxCell>
        <mxCell id="xI-_J-oyyOmIZLtXHt4S-50" value="ActivationDate" style="rounded=1;whiteSpace=wrap;html=1;gradientColor=#ffd966;fillColor=#fff2cc;strokeColor=#d6b656;" parent="1" vertex="1">
          <mxGeometry x="-743.5" y="655" width="120" height="30" as="geometry" />
        </mxCell>
        <mxCell id="xI-_J-oyyOmIZLtXHt4S-51" value="" style="endArrow=classic;html=1;fontSize=18;entryX=1;entryY=0.5;entryDx=0;entryDy=0;exitX=0.407;exitY=-0.037;exitDx=0;exitDy=0;exitPerimeter=0;" parent="1" target="xI-_J-oyyOmIZLtXHt4S-50" edge="1">
          <mxGeometry width="50" height="50" relative="1" as="geometry">
            <mxPoint x="-574.6600000000001" y="777.8899999999999" as="sourcePoint" />
            <mxPoint x="-493.5" y="686" as="targetPoint" />
            <Array as="points">
              <mxPoint x="-574.5" y="670" />
            </Array>
          </mxGeometry>
        </mxCell>
        <mxCell id="xI-_J-oyyOmIZLtXHt4S-52" value="ContractTerm" style="rounded=1;whiteSpace=wrap;html=1;fontStyle=1;gradientColor=#7ea6e0;fillColor=#dae8fc;strokeColor=#6c8ebf;" parent="1" vertex="1">
          <mxGeometry x="-623.5" y="777" width="120" height="30" as="geometry" />
        </mxCell>
        <mxCell id="xI-_J-oyyOmIZLtXHt4S-53" value="ActivationDateEntered" style="html=1;outlineConnect=0;whiteSpace=wrap;fillColor=#99ffff;shape=mxgraph.archimate3.event;dashed=1;strokeWidth=2;fontSize=10;" parent="1" vertex="1">
          <mxGeometry x="-740.5" y="691" width="158" height="18" as="geometry" />
        </mxCell>
        <mxCell id="xI-_J-oyyOmIZLtXHt4S-54" value="OpportunityNumberReferenced" style="html=1;outlineConnect=0;whiteSpace=wrap;fillColor=#99ffff;shape=mxgraph.archimate3.event;dashed=1;strokeWidth=2;fontSize=10;" parent="1" vertex="1">
          <mxGeometry x="-529.5" y="689" width="167" height="16" as="geometry" />
        </mxCell>
        <mxCell id="xI-_J-oyyOmIZLtXHt4S-55" value="AutoProvision&lt;br&gt;Selected" style="html=1;outlineConnect=0;whiteSpace=wrap;fillColor=#99ffff;shape=mxgraph.archimate3.event;dashed=1;strokeWidth=2;fontSize=10;" parent="1" vertex="1">
          <mxGeometry x="-598.5" y="944" width="86" height="26" as="geometry" />
        </mxCell>
        <mxCell id="xI-_J-oyyOmIZLtXHt4S-56" value="MRRPrice" style="rounded=1;whiteSpace=wrap;html=1;gradientColor=#ffd966;fillColor=#fff2cc;strokeColor=#d6b656;" parent="1" vertex="1">
          <mxGeometry x="-1037.88" y="940" width="84.38" height="30" as="geometry" />
        </mxCell>
        <mxCell id="xI-_J-oyyOmIZLtXHt4S-57" value="BillingLocation" style="rounded=1;whiteSpace=wrap;html=1;gradientColor=#ffd966;fillColor=#fff2cc;strokeColor=#d6b656;" parent="1" vertex="1">
          <mxGeometry x="-1176.12" y="1010" width="99" height="26" as="geometry" />
        </mxCell>
        <mxCell id="xI-_J-oyyOmIZLtXHt4S-58" value="BillingLocationAssigned" style="html=1;outlineConnect=0;whiteSpace=wrap;fillColor=#99ffff;shape=mxgraph.archimate3.event;dashed=1;strokeWidth=2;fontSize=10;" parent="1" vertex="1">
          <mxGeometry x="-1190.5" y="1040" width="132" height="20" as="geometry" />
        </mxCell>
        <mxCell id="xI-_J-oyyOmIZLtXHt4S-59" value="MRRPrice&lt;br&gt;Entered" style="html=1;outlineConnect=0;whiteSpace=wrap;fillColor=#99ffff;shape=mxgraph.archimate3.event;dashed=1;strokeWidth=2;fontSize=10;" parent="1" vertex="1">
          <mxGeometry x="-949.5" y="941.5" width="64" height="27" as="geometry" />
        </mxCell>
        <mxCell id="xI-_J-oyyOmIZLtXHt4S-62" value="ContractDurationExtended" style="html=1;outlineConnect=0;whiteSpace=wrap;fillColor=#99ffff;shape=mxgraph.archimate3.event;dashed=1;strokeWidth=2;fontSize=10;" parent="1" vertex="1">
          <mxGeometry x="-753.5" y="727" width="140" height="18" as="geometry" />
        </mxCell>
        <mxCell id="xI-_J-oyyOmIZLtXHt4S-63" value="" style="ellipse;whiteSpace=wrap;html=1;dashed=1;strokeWidth=2;strokeColor=#FF3333;" parent="1" vertex="1">
          <mxGeometry x="-1327.5" y="1076" width="430" height="400" as="geometry" />
        </mxCell>
        <mxCell id="xI-_J-oyyOmIZLtXHt4S-67" value="IPAddressTable" style="rounded=1;whiteSpace=wrap;html=1;gradientColor=#ffd966;fillColor=#fff2cc;strokeColor=#d6b656;" parent="1" vertex="1">
          <mxGeometry x="-1049.5" y="1342" width="120" height="30" as="geometry" />
        </mxCell>
        <mxCell id="xI-_J-oyyOmIZLtXHt4S-68" value="Customers" style="rounded=1;whiteSpace=wrap;html=1;gradientColor=#ffd966;fillColor=#fff2cc;strokeColor=#d6b656;" parent="1" vertex="1">
          <mxGeometry x="-1312.5" y="1312" width="120" height="30" as="geometry" />
        </mxCell>
        <mxCell id="xI-_J-oyyOmIZLtXHt4S-69" value="Connect PBX Bounded Context" style="text;html=1;strokeColor=none;fillColor=none;align=center;verticalAlign=middle;whiteSpace=wrap;rounded=0;dashed=1;fontSize=18;" parent="1" vertex="1">
          <mxGeometry x="-1198.5" y="1090" width="169.5" height="30" as="geometry" />
        </mxCell>
        <mxCell id="xI-_J-oyyOmIZLtXHt4S-70" value="" style="endArrow=classic;html=1;fontSize=18;exitX=0;exitY=0.75;exitDx=0;exitDy=0;" parent="1" source="xI-_J-oyyOmIZLtXHt4S-85" target="xI-_J-oyyOmIZLtXHt4S-68" edge="1">
          <mxGeometry width="50" height="50" relative="1" as="geometry">
            <mxPoint x="-1130" y="1276" as="sourcePoint" />
            <mxPoint x="-1130" y="1194" as="targetPoint" />
            <Array as="points">
              <mxPoint x="-1255.5" y="1297" />
            </Array>
          </mxGeometry>
        </mxCell>
        <mxCell id="xI-_J-oyyOmIZLtXHt4S-71" value="" style="endArrow=classic;html=1;fontSize=18;exitX=1;exitY=0.5;exitDx=0;exitDy=0;entryX=0.425;entryY=-0.067;entryDx=0;entryDy=0;entryPerimeter=0;" parent="1" source="xI-_J-oyyOmIZLtXHt4S-85" target="xI-_J-oyyOmIZLtXHt4S-67" edge="1">
          <mxGeometry width="50" height="50" relative="1" as="geometry">
            <mxPoint x="-945" y="1332" as="sourcePoint" />
            <mxPoint x="-998.5" y="1310" as="targetPoint" />
            <Array as="points">
              <mxPoint x="-998.5" y="1289" />
            </Array>
          </mxGeometry>
        </mxCell>
        <mxCell id="xI-_J-oyyOmIZLtXHt4S-78" value="IPPBXInstanceQueried" style="html=1;outlineConnect=0;whiteSpace=wrap;shape=mxgraph.archimate3.event;dashed=1;strokeWidth=2;fontSize=10;strokeColor=#B20000;fillColor=#e51400;fontColor=#ffffff;fontStyle=1" parent="1" vertex="1">
          <mxGeometry x="-1190" y="1342" width="138" height="20" as="geometry" />
        </mxCell>
        <mxCell id="xI-_J-oyyOmIZLtXHt4S-79" value="IPPBXInstanceAdded" style="html=1;outlineConnect=0;whiteSpace=wrap;shape=mxgraph.archimate3.event;dashed=1;strokeWidth=2;fontSize=10;strokeColor=#B20000;fillColor=#e51400;fontColor=#ffffff;fontStyle=1" parent="1" vertex="1">
          <mxGeometry x="-1189" y="1312" width="130.5" height="20" as="geometry" />
        </mxCell>
        <mxCell id="xI-_J-oyyOmIZLtXHt4S-83" value="Location" style="rounded=1;whiteSpace=wrap;html=1;gradientColor=#ffd966;fillColor=#fff2cc;strokeColor=#d6b656;" parent="1" vertex="1">
          <mxGeometry x="-1315.5" y="1211" width="120" height="30" as="geometry" />
        </mxCell>
        <mxCell id="xI-_J-oyyOmIZLtXHt4S-84" value="" style="endArrow=classic;html=1;fontSize=18;entryX=1;entryY=0.5;entryDx=0;entryDy=0;exitX=0.5;exitY=0;exitDx=0;exitDy=0;" parent="1" source="xI-_J-oyyOmIZLtXHt4S-85" target="xI-_J-oyyOmIZLtXHt4S-83" edge="1">
          <mxGeometry width="50" height="50" relative="1" as="geometry">
            <mxPoint x="-1143.16" y="1274.8899999999999" as="sourcePoint" />
            <mxPoint x="-1062" y="1183" as="targetPoint" />
            <Array as="points">
              <mxPoint x="-1131.5" y="1226" />
            </Array>
          </mxGeometry>
        </mxCell>
        <mxCell id="xI-_J-oyyOmIZLtXHt4S-86" value="LocationAdded" style="html=1;outlineConnect=0;whiteSpace=wrap;fillColor=#99ffff;shape=mxgraph.archimate3.event;dashed=1;strokeWidth=2;fontSize=10;" parent="1" vertex="1">
          <mxGeometry x="-1312.5" y="1247" width="120.5" height="18" as="geometry" />
        </mxCell>
        <mxCell id="xI-_J-oyyOmIZLtXHt4S-87" value="CustomerAdded" style="html=1;outlineConnect=0;whiteSpace=wrap;fillColor=#99ffff;shape=mxgraph.archimate3.event;dashed=1;strokeWidth=2;fontSize=10;" parent="1" vertex="1">
          <mxGeometry x="-1294.25" y="1350" width="98.75" height="16" as="geometry" />
        </mxCell>
        <mxCell id="xI-_J-oyyOmIZLtXHt4S-89" value="IPAddressAssigned" style="html=1;outlineConnect=0;whiteSpace=wrap;fillColor=#99ffff;shape=mxgraph.archimate3.event;dashed=1;strokeWidth=2;fontSize=10;" parent="1" vertex="1">
          <mxGeometry x="-1058.5" y="1379" width="116.5" height="18" as="geometry" />
        </mxCell>
        <mxCell id="xI-_J-oyyOmIZLtXHt4S-90" value="Partition" style="rounded=1;whiteSpace=wrap;html=1;gradientColor=#ffd966;fillColor=#fff2cc;strokeColor=#d6b656;" parent="1" vertex="1">
          <mxGeometry x="-1058.5" y="1233" width="120" height="30" as="geometry" />
        </mxCell>
        <mxCell id="xI-_J-oyyOmIZLtXHt4S-91" value="PartitionAdded" style="html=1;outlineConnect=0;whiteSpace=wrap;fillColor=#99ffff;shape=mxgraph.archimate3.event;dashed=1;strokeWidth=2;fontSize=10;" parent="1" vertex="1">
          <mxGeometry x="-1067.5" y="1211" width="130" height="18" as="geometry" />
        </mxCell>
        <mxCell id="xI-_J-oyyOmIZLtXHt4S-92" value="" style="endArrow=classic;html=1;fontSize=18;entryX=0;entryY=0.5;entryDx=0;entryDy=0;exitX=0.613;exitY=0.033;exitDx=0;exitDy=0;exitPerimeter=0;" parent="1" target="xI-_J-oyyOmIZLtXHt4S-90" edge="1">
          <mxGeometry width="50" height="50" relative="1" as="geometry">
            <mxPoint x="-1111.44" y="1274.99" as="sourcePoint" />
            <mxPoint x="-1178.5" y="1231" as="targetPoint" />
            <Array as="points">
              <mxPoint x="-1111.5" y="1248" />
            </Array>
          </mxGeometry>
        </mxCell>
        <mxCell id="xI-_J-oyyOmIZLtXHt4S-85" value="PBX Instance" style="rounded=1;whiteSpace=wrap;html=1;fontStyle=1;gradientColor=#7ea6e0;fillColor=#dae8fc;strokeColor=#6c8ebf;" parent="1" vertex="1">
          <mxGeometry x="-1192" y="1274" width="120" height="30" as="geometry" />
        </mxCell>
        <mxCell id="xI-_J-oyyOmIZLtXHt4S-93" value="Feature" style="rounded=1;whiteSpace=wrap;html=1;gradientColor=#ffd966;fillColor=#fff2cc;strokeColor=#d6b656;" parent="1" vertex="1">
          <mxGeometry x="-1180.5" y="1178" width="120" height="30" as="geometry" />
        </mxCell>
        <mxCell id="xI-_J-oyyOmIZLtXHt4S-94" value="AddOnFeatureActivated" style="html=1;outlineConnect=0;whiteSpace=wrap;fillColor=#99ffff;shape=mxgraph.archimate3.event;dashed=1;strokeWidth=2;fontSize=10;" parent="1" vertex="1">
          <mxGeometry x="-1196" y="1153" width="145.5" height="18" as="geometry" />
        </mxCell>
        <mxCell id="xI-_J-oyyOmIZLtXHt4S-98" value="" style="endArrow=classic;html=1;entryX=0.5;entryY=1;entryDx=0;entryDy=0;" parent="1" target="xI-_J-oyyOmIZLtXHt4S-93" edge="1">
          <mxGeometry width="50" height="50" relative="1" as="geometry">
            <mxPoint x="-1120.5" y="1276" as="sourcePoint" />
            <mxPoint x="-1238.5" y="1220" as="targetPoint" />
            <Array as="points" />
          </mxGeometry>
        </mxCell>
        <mxCell id="yD45Ho3UM-dj7maDb05n-2" value="" style="ellipse;whiteSpace=wrap;html=1;dashed=1;strokeWidth=2;strokeColor=#FF3333;" vertex="1" parent="1">
          <mxGeometry x="-1971.75" y="1072" width="463" height="410" as="geometry" />
        </mxCell>
        <mxCell id="yD45Ho3UM-dj7maDb05n-3" value="ServicePricing" style="rounded=1;whiteSpace=wrap;html=1;gradientColor=#ffd966;fillColor=#fff2cc;strokeColor=#d6b656;" vertex="1" parent="1">
          <mxGeometry x="-1655" y="1308" width="120" height="30" as="geometry" />
        </mxCell>
        <mxCell id="yD45Ho3UM-dj7maDb05n-4" value="Attachments" style="rounded=1;whiteSpace=wrap;html=1;gradientColor=#ffd966;fillColor=#fff2cc;strokeColor=#d6b656;" vertex="1" parent="1">
          <mxGeometry x="-1921.75" y="1330" width="120" height="30" as="geometry" />
        </mxCell>
        <mxCell id="yD45Ho3UM-dj7maDb05n-5" value="Product" style="rounded=1;whiteSpace=wrap;html=1;gradientColor=#ffd966;fillColor=#fff2cc;strokeColor=#d6b656;" vertex="1" parent="1">
          <mxGeometry x="-1659" y="1219" width="120" height="30" as="geometry" />
        </mxCell>
        <mxCell id="yD45Ho3UM-dj7maDb05n-6" value="ServiceLocation" style="rounded=1;whiteSpace=wrap;html=1;gradientColor=#ffd966;fillColor=#fff2cc;strokeColor=#d6b656;" vertex="1" parent="1">
          <mxGeometry x="-1921.75" y="1238" width="120" height="30" as="geometry" />
        </mxCell>
        <mxCell id="yD45Ho3UM-dj7maDb05n-7" value="CustomerUser" style="rounded=1;whiteSpace=wrap;html=1;gradientColor=#ffd966;fillColor=#fff2cc;strokeColor=#d6b656;" vertex="1" parent="1">
          <mxGeometry x="-1692.75" y="1165" width="120" height="30" as="geometry" />
        </mxCell>
        <mxCell id="yD45Ho3UM-dj7maDb05n-8" value="Services Delivery&amp;nbsp;&lt;br&gt;Bounded Context" style="text;html=1;strokeColor=none;fillColor=none;align=center;verticalAlign=middle;whiteSpace=wrap;rounded=0;dashed=1;fontSize=18;" vertex="1" parent="1">
          <mxGeometry x="-1820.5" y="1088" width="169.5" height="30" as="geometry" />
        </mxCell>
        <mxCell id="yD45Ho3UM-dj7maDb05n-9" value="" style="endArrow=classic;html=1;fontSize=18;entryX=0;entryY=0.5;entryDx=0;entryDy=0;" edge="1" target="yD45Ho3UM-dj7maDb05n-7" parent="1">
          <mxGeometry width="50" height="50" relative="1" as="geometry">
            <mxPoint x="-1737.75" y="1270" as="sourcePoint" />
            <mxPoint x="-1737.75" y="1188" as="targetPoint" />
            <Array as="points">
              <mxPoint x="-1738.75" y="1180" />
            </Array>
          </mxGeometry>
        </mxCell>
        <mxCell id="yD45Ho3UM-dj7maDb05n-10" value="" style="endArrow=classic;html=1;fontSize=18;entryX=0.5;entryY=1;entryDx=0;entryDy=0;exitX=0;exitY=0.5;exitDx=0;exitDy=0;" edge="1" source="yD45Ho3UM-dj7maDb05n-24" target="yD45Ho3UM-dj7maDb05n-6" parent="1">
          <mxGeometry width="50" height="50" relative="1" as="geometry">
            <mxPoint x="-1552.75" y="1326" as="sourcePoint" />
            <mxPoint x="-1502.75" y="1276" as="targetPoint" />
            <Array as="points">
              <mxPoint x="-1859.75" y="1283" />
            </Array>
          </mxGeometry>
        </mxCell>
        <mxCell id="yD45Ho3UM-dj7maDb05n-11" value="" style="endArrow=classic;html=1;fontSize=18;entryX=0.444;entryY=0;entryDx=0;entryDy=0;exitX=1;exitY=0.5;exitDx=0;exitDy=0;entryPerimeter=0;" edge="1" source="yD45Ho3UM-dj7maDb05n-24" target="yD45Ho3UM-dj7maDb05n-3" parent="1">
          <mxGeometry width="50" height="50" relative="1" as="geometry">
            <mxPoint x="-1789.75" y="1293" as="sourcePoint" />
            <mxPoint x="-1849.75" y="1252" as="targetPoint" />
            <Array as="points">
              <mxPoint x="-1601.75" y="1283" />
            </Array>
          </mxGeometry>
        </mxCell>
        <mxCell id="yD45Ho3UM-dj7maDb05n-12" value="" style="endArrow=classic;html=1;fontSize=18;exitX=0;exitY=0.75;exitDx=0;exitDy=0;entryX=0.5;entryY=0;entryDx=0;entryDy=0;" edge="1" source="yD45Ho3UM-dj7maDb05n-24" target="yD45Ho3UM-dj7maDb05n-4" parent="1">
          <mxGeometry width="50" height="50" relative="1" as="geometry">
            <mxPoint x="-1902.75" y="1480" as="sourcePoint" />
            <mxPoint x="-1799.75" y="1356" as="targetPoint" />
            <Array as="points">
              <mxPoint x="-1859.75" y="1291" />
            </Array>
          </mxGeometry>
        </mxCell>
        <mxCell id="yD45Ho3UM-dj7maDb05n-13" value="" style="endArrow=classic;html=1;fontSize=18;exitX=0.75;exitY=0;exitDx=0;exitDy=0;entryX=0.004;entryY=0.567;entryDx=0;entryDy=0;entryPerimeter=0;" edge="1" source="yD45Ho3UM-dj7maDb05n-24" target="yD45Ho3UM-dj7maDb05n-5" parent="1">
          <mxGeometry width="50" height="50" relative="1" as="geometry">
            <mxPoint x="-1727.75" y="1276" as="sourcePoint" />
            <mxPoint x="-1676.75" y="1217" as="targetPoint" />
            <Array as="points">
              <mxPoint x="-1709.75" y="1236" />
            </Array>
          </mxGeometry>
        </mxCell>
        <mxCell id="yD45Ho3UM-dj7maDb05n-14" value="ProductSelected" style="html=1;outlineConnect=0;whiteSpace=wrap;fillColor=#99ffff;shape=mxgraph.archimate3.event;dashed=1;strokeWidth=2;fontSize=10;" vertex="1" parent="1">
          <mxGeometry x="-1659" y="1253" width="130.25" height="17" as="geometry" />
        </mxCell>
        <mxCell id="yD45Ho3UM-dj7maDb05n-16" value="ServicePricingDate&lt;br&gt;Captured" style="html=1;outlineConnect=0;whiteSpace=wrap;fillColor=#99ffff;shape=mxgraph.archimate3.event;dashed=1;strokeWidth=2;fontSize=10;" vertex="1" parent="1">
          <mxGeometry x="-1645.75" y="1346" width="110.5" height="24" as="geometry" />
        </mxCell>
        <mxCell id="yD45Ho3UM-dj7maDb05n-17" value="ServiceInPendingState" style="html=1;outlineConnect=0;whiteSpace=wrap;shape=mxgraph.archimate3.event;dashed=1;strokeWidth=2;fontSize=10;strokeColor=#B20000;fillColor=#e51400;fontColor=#ffffff;fontStyle=1" vertex="1" parent="1">
          <mxGeometry x="-1797.75" y="1337" width="138" height="20" as="geometry" />
        </mxCell>
        <mxCell id="yD45Ho3UM-dj7maDb05n-18" value="ServiceOrderIdAssigned" style="html=1;outlineConnect=0;whiteSpace=wrap;shape=mxgraph.archimate3.event;dashed=1;strokeWidth=2;fontSize=10;strokeColor=#B20000;fillColor=#e51400;fontColor=#ffffff;fontStyle=1" vertex="1" parent="1">
          <mxGeometry x="-1796.75" y="1306" width="135" height="20" as="geometry" />
        </mxCell>
        <mxCell id="yD45Ho3UM-dj7maDb05n-19" value="ServiceExecutionLog" style="rounded=1;whiteSpace=wrap;html=1;gradientColor=#ffd966;fillColor=#fff2cc;strokeColor=#d6b656;" vertex="1" parent="1">
          <mxGeometry x="-1794.75" y="1396" width="120" height="30" as="geometry" />
        </mxCell>
        <mxCell id="yD45Ho3UM-dj7maDb05n-20" value="" style="endArrow=classic;html=1;exitX=0.5;exitY=1;exitDx=0;exitDy=0;entryX=1;entryY=0.5;entryDx=0;entryDy=0;" edge="1" parent="1">
          <mxGeometry width="50" height="50" relative="1" as="geometry">
            <mxPoint x="-1679.75" y="1288" as="sourcePoint" />
            <mxPoint x="-1677.75" y="1411" as="targetPoint" />
            <Array as="points">
              <mxPoint x="-1658.75" y="1288" />
              <mxPoint x="-1658.75" y="1346" />
              <mxPoint x="-1658.75" y="1411" />
            </Array>
          </mxGeometry>
        </mxCell>
        <mxCell id="yD45Ho3UM-dj7maDb05n-21" value="AttachmentsAdded" style="html=1;outlineConnect=0;whiteSpace=wrap;fillColor=#99ffff;shape=mxgraph.archimate3.event;dashed=1;strokeWidth=2;fontSize=10;" vertex="1" parent="1">
          <mxGeometry x="-1921.75" y="1367.5" width="120" height="21.5" as="geometry" />
        </mxCell>
        <mxCell id="yD45Ho3UM-dj7maDb05n-22" value="ServiceActivation&lt;br&gt;Date" style="rounded=1;whiteSpace=wrap;html=1;gradientColor=#ffd966;fillColor=#fff2cc;strokeColor=#d6b656;" vertex="1" parent="1">
          <mxGeometry x="-1919.75" y="1146" width="120" height="30" as="geometry" />
        </mxCell>
        <mxCell id="yD45Ho3UM-dj7maDb05n-23" value="" style="endArrow=classic;html=1;fontSize=18;entryX=1;entryY=0.5;entryDx=0;entryDy=0;exitX=0.407;exitY=-0.037;exitDx=0;exitDy=0;exitPerimeter=0;" edge="1" target="yD45Ho3UM-dj7maDb05n-22" parent="1">
          <mxGeometry width="50" height="50" relative="1" as="geometry">
            <mxPoint x="-1750.9099999999999" y="1268.8899999999999" as="sourcePoint" />
            <mxPoint x="-1669.75" y="1177" as="targetPoint" />
            <Array as="points">
              <mxPoint x="-1750.75" y="1161" />
            </Array>
          </mxGeometry>
        </mxCell>
        <mxCell id="yD45Ho3UM-dj7maDb05n-24" value="Service" style="rounded=1;whiteSpace=wrap;html=1;fontStyle=1;gradientColor=#7ea6e0;fillColor=#dae8fc;strokeColor=#6c8ebf;" vertex="1" parent="1">
          <mxGeometry x="-1799.75" y="1268" width="120" height="30" as="geometry" />
        </mxCell>
        <mxCell id="yD45Ho3UM-dj7maDb05n-25" value="ServiceActionDateCaptured" style="html=1;outlineConnect=0;whiteSpace=wrap;fillColor=#99ffff;shape=mxgraph.archimate3.event;dashed=1;strokeWidth=2;fontSize=10;" vertex="1" parent="1">
          <mxGeometry x="-1916.75" y="1182" width="158" height="18" as="geometry" />
        </mxCell>
        <mxCell id="yD45Ho3UM-dj7maDb05n-26" value="UserAssigned" style="html=1;outlineConnect=0;whiteSpace=wrap;fillColor=#99ffff;shape=mxgraph.archimate3.event;dashed=1;strokeWidth=2;fontSize=10;" vertex="1" parent="1">
          <mxGeometry x="-1692.75" y="1199" width="124" height="16" as="geometry" />
        </mxCell>
        <mxCell id="yD45Ho3UM-dj7maDb05n-27" value="ServiceExecutionLogStored" style="html=1;outlineConnect=0;whiteSpace=wrap;fillColor=#99ffff;shape=mxgraph.archimate3.event;dashed=1;strokeWidth=2;fontSize=10;" vertex="1" parent="1">
          <mxGeometry x="-1805.75" y="1432" width="153" height="26" as="geometry" />
        </mxCell>
        <mxCell id="yD45Ho3UM-dj7maDb05n-28" value="ServiceLocationCaptured" style="html=1;outlineConnect=0;whiteSpace=wrap;fillColor=#99ffff;shape=mxgraph.archimate3.event;dashed=1;strokeWidth=2;fontSize=10;" vertex="1" parent="1">
          <mxGeometry x="-1929.75" y="1218" width="140" height="18" as="geometry" />
        </mxCell>
        <mxCell id="yD45Ho3UM-dj7maDb05n-29" value="" style="ellipse;whiteSpace=wrap;html=1;dashed=1;strokeWidth=2;strokeColor=#FF3333;" vertex="1" parent="1">
          <mxGeometry x="-2002.75" y="129" width="463" height="410" as="geometry" />
        </mxCell>
        <mxCell id="yD45Ho3UM-dj7maDb05n-30" value="Locations" style="rounded=1;whiteSpace=wrap;html=1;gradientColor=#ffd966;fillColor=#fff2cc;strokeColor=#d6b656;" vertex="1" parent="1">
          <mxGeometry x="-1686" y="365" width="120" height="30" as="geometry" />
        </mxCell>
        <mxCell id="yD45Ho3UM-dj7maDb05n-31" value="Countries" style="rounded=1;whiteSpace=wrap;html=1;gradientColor=#ffd966;fillColor=#fff2cc;strokeColor=#d6b656;" vertex="1" parent="1">
          <mxGeometry x="-1952.75" y="387" width="120" height="30" as="geometry" />
        </mxCell>
        <mxCell id="yD45Ho3UM-dj7maDb05n-32" value="ProductSettings" style="rounded=1;whiteSpace=wrap;html=1;gradientColor=#ffd966;fillColor=#fff2cc;strokeColor=#d6b656;" vertex="1" parent="1">
          <mxGeometry x="-1690" y="265" width="120" height="30" as="geometry" />
        </mxCell>
        <mxCell id="yD45Ho3UM-dj7maDb05n-33" value="PBXInstance" style="rounded=1;whiteSpace=wrap;html=1;gradientColor=#ffd966;fillColor=#fff2cc;strokeColor=#d6b656;" vertex="1" parent="1">
          <mxGeometry x="-1952.75" y="295" width="120" height="30" as="geometry" />
        </mxCell>
        <mxCell id="yD45Ho3UM-dj7maDb05n-34" value="ProductActivation" style="rounded=1;whiteSpace=wrap;html=1;gradientColor=#ffd966;fillColor=#fff2cc;strokeColor=#d6b656;" vertex="1" parent="1">
          <mxGeometry x="-1723.75" y="202" width="120" height="30" as="geometry" />
        </mxCell>
        <mxCell id="yD45Ho3UM-dj7maDb05n-35" value="Product Catalog&amp;nbsp;&lt;br&gt;Bounded Context" style="text;html=1;strokeColor=none;fillColor=none;align=center;verticalAlign=middle;whiteSpace=wrap;rounded=0;dashed=1;fontSize=18;" vertex="1" parent="1">
          <mxGeometry x="-1858.5" y="149" width="169.5" height="30" as="geometry" />
        </mxCell>
        <mxCell id="yD45Ho3UM-dj7maDb05n-36" value="" style="endArrow=classic;html=1;fontSize=18;entryX=0;entryY=0.5;entryDx=0;entryDy=0;" edge="1" target="yD45Ho3UM-dj7maDb05n-34" parent="1">
          <mxGeometry width="50" height="50" relative="1" as="geometry">
            <mxPoint x="-1768.75" y="327" as="sourcePoint" />
            <mxPoint x="-1768.75" y="245" as="targetPoint" />
            <Array as="points">
              <mxPoint x="-1769.75" y="217" />
            </Array>
          </mxGeometry>
        </mxCell>
        <mxCell id="yD45Ho3UM-dj7maDb05n-37" value="" style="endArrow=classic;html=1;fontSize=18;entryX=0.5;entryY=1;entryDx=0;entryDy=0;exitX=0;exitY=0.5;exitDx=0;exitDy=0;" edge="1" source="yD45Ho3UM-dj7maDb05n-51" target="yD45Ho3UM-dj7maDb05n-33" parent="1">
          <mxGeometry width="50" height="50" relative="1" as="geometry">
            <mxPoint x="-1583.75" y="383" as="sourcePoint" />
            <mxPoint x="-1533.75" y="333" as="targetPoint" />
            <Array as="points">
              <mxPoint x="-1890.75" y="340" />
            </Array>
          </mxGeometry>
        </mxCell>
        <mxCell id="yD45Ho3UM-dj7maDb05n-38" value="" style="endArrow=classic;html=1;fontSize=18;entryX=0.5;entryY=0;entryDx=0;entryDy=0;exitX=1;exitY=0.5;exitDx=0;exitDy=0;" edge="1" source="yD45Ho3UM-dj7maDb05n-51" target="yD45Ho3UM-dj7maDb05n-30" parent="1">
          <mxGeometry width="50" height="50" relative="1" as="geometry">
            <mxPoint x="-1820.75" y="350" as="sourcePoint" />
            <mxPoint x="-1880.75" y="309" as="targetPoint" />
            <Array as="points">
              <mxPoint x="-1625.75" y="340" />
            </Array>
          </mxGeometry>
        </mxCell>
        <mxCell id="yD45Ho3UM-dj7maDb05n-39" value="" style="endArrow=classic;html=1;fontSize=18;exitX=0;exitY=0.75;exitDx=0;exitDy=0;entryX=0.5;entryY=0;entryDx=0;entryDy=0;" edge="1" source="yD45Ho3UM-dj7maDb05n-51" target="yD45Ho3UM-dj7maDb05n-31" parent="1">
          <mxGeometry width="50" height="50" relative="1" as="geometry">
            <mxPoint x="-1933.75" y="537" as="sourcePoint" />
            <mxPoint x="-1830.75" y="413" as="targetPoint" />
            <Array as="points">
              <mxPoint x="-1890.75" y="348" />
            </Array>
          </mxGeometry>
        </mxCell>
        <mxCell id="yD45Ho3UM-dj7maDb05n-40" value="" style="endArrow=classic;html=1;fontSize=18;exitX=0.75;exitY=0;exitDx=0;exitDy=0;entryX=0.004;entryY=0.567;entryDx=0;entryDy=0;entryPerimeter=0;" edge="1" source="yD45Ho3UM-dj7maDb05n-51" target="yD45Ho3UM-dj7maDb05n-32" parent="1">
          <mxGeometry width="50" height="50" relative="1" as="geometry">
            <mxPoint x="-1758.75" y="333" as="sourcePoint" />
            <mxPoint x="-1707.75" y="274" as="targetPoint" />
            <Array as="points">
              <mxPoint x="-1740.75" y="283" />
            </Array>
          </mxGeometry>
        </mxCell>
        <mxCell id="yD45Ho3UM-dj7maDb05n-41" value="ProductSettingsEntered" style="html=1;outlineConnect=0;whiteSpace=wrap;fillColor=#99ffff;shape=mxgraph.archimate3.event;dashed=1;strokeWidth=2;fontSize=10;" vertex="1" parent="1">
          <mxGeometry x="-1690" y="299" width="139.25" height="28" as="geometry" />
        </mxCell>
        <mxCell id="yD45Ho3UM-dj7maDb05n-43" value="LocationEnabled" style="html=1;outlineConnect=0;whiteSpace=wrap;fillColor=#99ffff;shape=mxgraph.archimate3.event;dashed=1;strokeWidth=2;fontSize=10;" vertex="1" parent="1">
          <mxGeometry x="-1676.75" y="403" width="110.5" height="24" as="geometry" />
        </mxCell>
        <mxCell id="yD45Ho3UM-dj7maDb05n-44" value="ProductUpdated" style="html=1;outlineConnect=0;whiteSpace=wrap;shape=mxgraph.archimate3.event;dashed=1;strokeWidth=2;fontSize=10;strokeColor=#B20000;fillColor=#e51400;fontColor=#ffffff;fontStyle=1" vertex="1" parent="1">
          <mxGeometry x="-1828.75" y="394" width="118" height="20" as="geometry" />
        </mxCell>
        <mxCell id="yD45Ho3UM-dj7maDb05n-45" value="ProductActivated" style="html=1;outlineConnect=0;whiteSpace=wrap;shape=mxgraph.archimate3.event;dashed=1;strokeWidth=2;fontSize=10;strokeColor=#B20000;fillColor=#e51400;fontColor=#ffffff;fontStyle=1" vertex="1" parent="1">
          <mxGeometry x="-1827.75" y="363" width="119" height="20" as="geometry" />
        </mxCell>
        <mxCell id="yD45Ho3UM-dj7maDb05n-46" value="Customers" style="rounded=1;whiteSpace=wrap;html=1;gradientColor=#ffd966;fillColor=#fff2cc;strokeColor=#d6b656;" vertex="1" parent="1">
          <mxGeometry x="-1825.75" y="453" width="120" height="30" as="geometry" />
        </mxCell>
        <mxCell id="yD45Ho3UM-dj7maDb05n-47" value="" style="endArrow=classic;html=1;exitX=0.5;exitY=1;exitDx=0;exitDy=0;entryX=1;entryY=0.5;entryDx=0;entryDy=0;" edge="1" parent="1">
          <mxGeometry width="50" height="50" relative="1" as="geometry">
            <mxPoint x="-1710.75" y="345" as="sourcePoint" />
            <mxPoint x="-1708.75" y="468" as="targetPoint" />
            <Array as="points">
              <mxPoint x="-1689.75" y="345" />
              <mxPoint x="-1689.75" y="403" />
              <mxPoint x="-1689.75" y="468" />
            </Array>
          </mxGeometry>
        </mxCell>
        <mxCell id="yD45Ho3UM-dj7maDb05n-48" value="CountriesEnabled" style="html=1;outlineConnect=0;whiteSpace=wrap;fillColor=#99ffff;shape=mxgraph.archimate3.event;dashed=1;strokeWidth=2;fontSize=10;" vertex="1" parent="1">
          <mxGeometry x="-1952.75" y="424.5" width="113" height="27" as="geometry" />
        </mxCell>
        <mxCell id="yD45Ho3UM-dj7maDb05n-49" value="ProductType" style="rounded=1;whiteSpace=wrap;html=1;gradientColor=#ffd966;fillColor=#fff2cc;strokeColor=#d6b656;" vertex="1" parent="1">
          <mxGeometry x="-1950.75" y="203" width="120" height="30" as="geometry" />
        </mxCell>
        <mxCell id="yD45Ho3UM-dj7maDb05n-50" value="" style="endArrow=classic;html=1;fontSize=18;entryX=1;entryY=0.5;entryDx=0;entryDy=0;exitX=0.407;exitY=-0.037;exitDx=0;exitDy=0;exitPerimeter=0;" edge="1" target="yD45Ho3UM-dj7maDb05n-49" parent="1">
          <mxGeometry width="50" height="50" relative="1" as="geometry">
            <mxPoint x="-1781.9099999999999" y="325.8899999999999" as="sourcePoint" />
            <mxPoint x="-1700.75" y="234" as="targetPoint" />
            <Array as="points">
              <mxPoint x="-1781.75" y="218" />
            </Array>
          </mxGeometry>
        </mxCell>
        <mxCell id="yD45Ho3UM-dj7maDb05n-51" value="Product" style="rounded=1;whiteSpace=wrap;html=1;fontStyle=1;gradientColor=#7ea6e0;fillColor=#dae8fc;strokeColor=#6c8ebf;" vertex="1" parent="1">
          <mxGeometry x="-1830.75" y="325" width="120" height="30" as="geometry" />
        </mxCell>
        <mxCell id="yD45Ho3UM-dj7maDb05n-52" value="ProductTypeEntered" style="html=1;outlineConnect=0;whiteSpace=wrap;fillColor=#99ffff;shape=mxgraph.archimate3.event;dashed=1;strokeWidth=2;fontSize=10;" vertex="1" parent="1">
          <mxGeometry x="-1947.75" y="239" width="158" height="18" as="geometry" />
        </mxCell>
        <mxCell id="yD45Ho3UM-dj7maDb05n-53" value="ProductActivationDateSet" style="html=1;outlineConnect=0;whiteSpace=wrap;fillColor=#99ffff;shape=mxgraph.archimate3.event;dashed=1;strokeWidth=2;fontSize=10;" vertex="1" parent="1">
          <mxGeometry x="-1736.75" y="237" width="167" height="16" as="geometry" />
        </mxCell>
        <mxCell id="yD45Ho3UM-dj7maDb05n-54" value="Customer&lt;br&gt;Assigned" style="html=1;outlineConnect=0;whiteSpace=wrap;fillColor=#99ffff;shape=mxgraph.archimate3.event;dashed=1;strokeWidth=2;fontSize=10;" vertex="1" parent="1">
          <mxGeometry x="-1805.75" y="492" width="86" height="26" as="geometry" />
        </mxCell>
        <mxCell id="yD45Ho3UM-dj7maDb05n-55" value="PBXForProductEnabled" style="html=1;outlineConnect=0;whiteSpace=wrap;fillColor=#99ffff;shape=mxgraph.archimate3.event;dashed=1;strokeWidth=2;fontSize=10;" vertex="1" parent="1">
          <mxGeometry x="-1960.75" y="275" width="140" height="18" as="geometry" />
        </mxCell>
        <mxCell id="yD45Ho3UM-dj7maDb05n-56" value="ServiceLocation&lt;br&gt;Changed" style="html=1;outlineConnect=0;whiteSpace=wrap;fillColor=#99ffff;shape=mxgraph.archimate3.event;dashed=1;strokeWidth=2;fontSize=10;" vertex="1" parent="1">
          <mxGeometry x="-1963.75" y="1273" width="100" height="28" as="geometry" />
        </mxCell>
        <mxCell id="yD45Ho3UM-dj7maDb05n-58" value="PricingRate&lt;br&gt;Referenced" style="html=1;outlineConnect=0;whiteSpace=wrap;fillColor=#99ffff;shape=mxgraph.archimate3.event;dashed=1;strokeWidth=2;fontSize=10;" vertex="1" parent="1">
          <mxGeometry x="-1645.75" y="1378" width="90" height="24" as="geometry" />
        </mxCell>
        <mxCell id="yD45Ho3UM-dj7maDb05n-59" value="ServiceActivated" style="html=1;outlineConnect=0;whiteSpace=wrap;shape=mxgraph.archimate3.event;dashed=1;strokeWidth=2;fontSize=10;strokeColor=#B20000;fillColor=#e51400;fontColor=#ffffff;fontStyle=1" vertex="1" parent="1">
          <mxGeometry x="-1796" y="1369" width="138" height="20" as="geometry" />
        </mxCell>
        <mxCell id="yD45Ho3UM-dj7maDb05n-61" value="ServiceExporter" style="rounded=1;whiteSpace=wrap;html=1;gradientColor=#ffd966;fillColor=#fff2cc;strokeColor=#d6b656;" vertex="1" parent="1">
          <mxGeometry x="-1789.75" y="1129" width="108" height="30" as="geometry" />
        </mxCell>
        <mxCell id="yD45Ho3UM-dj7maDb05n-62" value="" style="endArrow=classic;html=1;entryX=0.444;entryY=1;entryDx=0;entryDy=0;entryPerimeter=0;" edge="1" parent="1">
          <mxGeometry width="50" height="50" relative="1" as="geometry">
            <mxPoint x="-1743.75" y="1264" as="sourcePoint" />
            <mxPoint x="-1743.7979999999998" y="1159" as="targetPoint" />
            <Array as="points" />
          </mxGeometry>
        </mxCell>
        <mxCell id="yD45Ho3UM-dj7maDb05n-64" value="ServiceExported&lt;br&gt;toFile" style="html=1;outlineConnect=0;whiteSpace=wrap;fillColor=#99ffff;shape=mxgraph.archimate3.event;dashed=1;strokeWidth=2;fontSize=10;" vertex="1" parent="1">
          <mxGeometry x="-1679.75" y="1130" width="108" height="31" as="geometry" />
        </mxCell>
        <mxCell id="yD45Ho3UM-dj7maDb05n-65" value="ProductDeactivated" style="html=1;outlineConnect=0;whiteSpace=wrap;shape=mxgraph.archimate3.event;dashed=1;strokeWidth=2;fontSize=10;strokeColor=#B20000;fillColor=#e51400;fontColor=#ffffff;fontStyle=1" vertex="1" parent="1">
          <mxGeometry x="-1828.75" y="425" width="118" height="20" as="geometry" />
        </mxCell>
        <mxCell id="yD45Ho3UM-dj7maDb05n-66" value="" style="ellipse;whiteSpace=wrap;html=1;dashed=1;strokeWidth=2;strokeColor=#FF3333;" vertex="1" parent="1">
          <mxGeometry x="-2067.5" y="550" width="618" height="513" as="geometry" />
        </mxCell>
        <mxCell id="yD45Ho3UM-dj7maDb05n-67" value="OrderLineItem" style="rounded=1;whiteSpace=wrap;html=1;gradientColor=#ffd966;fillColor=#fff2cc;strokeColor=#d6b656;" vertex="1" parent="1">
          <mxGeometry x="-1680.5" y="721" width="84" height="30" as="geometry" />
        </mxCell>
        <mxCell id="yD45Ho3UM-dj7maDb05n-68" value="Contract" style="rounded=1;whiteSpace=wrap;html=1;gradientColor=#ffd966;fillColor=#fff2cc;strokeColor=#d6b656;" vertex="1" parent="1">
          <mxGeometry x="-1937.5" y="779" width="100" height="30" as="geometry" />
        </mxCell>
        <mxCell id="yD45Ho3UM-dj7maDb05n-69" value="ServiceLocation" style="rounded=1;whiteSpace=wrap;html=1;gradientColor=#ffd966;fillColor=#fff2cc;strokeColor=#d6b656;" vertex="1" parent="1">
          <mxGeometry x="-1701.25" y="685" width="100.26" height="30" as="geometry" />
        </mxCell>
        <mxCell id="yD45Ho3UM-dj7maDb05n-70" value="OrderType" style="rounded=1;whiteSpace=wrap;html=1;gradientColor=#ffd966;fillColor=#fff2cc;strokeColor=#d6b656;" vertex="1" parent="1">
          <mxGeometry x="-1917.5" y="677" width="94" height="30" as="geometry" />
        </mxCell>
        <mxCell id="yD45Ho3UM-dj7maDb05n-71" value="OrderPricing" style="rounded=1;whiteSpace=wrap;html=1;gradientColor=#ffd966;fillColor=#fff2cc;strokeColor=#d6b656;" vertex="1" parent="1">
          <mxGeometry x="-1704.5" y="640" width="120" height="30" as="geometry" />
        </mxCell>
        <mxCell id="yD45Ho3UM-dj7maDb05n-72" value="Order Bounded Context" style="text;html=1;strokeColor=none;fillColor=none;align=center;verticalAlign=middle;whiteSpace=wrap;rounded=0;dashed=1;fontSize=18;" vertex="1" parent="1">
          <mxGeometry x="-1842.25" y="563" width="169.5" height="30" as="geometry" />
        </mxCell>
        <mxCell id="yD45Ho3UM-dj7maDb05n-73" value="" style="endArrow=classic;html=1;fontSize=18;entryX=0;entryY=0.5;entryDx=0;entryDy=0;" edge="1" target="yD45Ho3UM-dj7maDb05n-71" parent="1">
          <mxGeometry width="50" height="50" relative="1" as="geometry">
            <mxPoint x="-1762.5" y="753" as="sourcePoint" />
            <mxPoint x="-1762.5" y="671" as="targetPoint" />
            <Array as="points">
              <mxPoint x="-1762.5" y="655" />
            </Array>
          </mxGeometry>
        </mxCell>
        <mxCell id="yD45Ho3UM-dj7maDb05n-74" value="" style="endArrow=classic;html=1;fontSize=18;entryX=1;entryY=0.5;entryDx=0;entryDy=0;" edge="1" target="yD45Ho3UM-dj7maDb05n-70" parent="1">
          <mxGeometry width="50" height="50" relative="1" as="geometry">
            <mxPoint x="-1801.5" y="750" as="sourcePoint" />
            <mxPoint x="-1831.5" y="720" as="targetPoint" />
            <Array as="points">
              <mxPoint x="-1801.5" y="692" />
            </Array>
          </mxGeometry>
        </mxCell>
        <mxCell id="yD45Ho3UM-dj7maDb05n-75" value="" style="endArrow=classic;html=1;fontSize=18;exitX=1;exitY=0.25;exitDx=0;exitDy=0;entryX=0;entryY=0.5;entryDx=0;entryDy=0;entryPerimeter=0;" edge="1" source="yD45Ho3UM-dj7maDb05n-100" target="yD45Ho3UM-dj7maDb05n-67" parent="1">
          <mxGeometry width="50" height="50" relative="1" as="geometry">
            <mxPoint x="-1814.5" y="776" as="sourcePoint" />
            <mxPoint x="-1643.5" y="780" as="targetPoint" />
            <Array as="points">
              <mxPoint x="-1704.5" y="736" />
            </Array>
          </mxGeometry>
        </mxCell>
        <mxCell id="yD45Ho3UM-dj7maDb05n-76" value="" style="endArrow=classic;html=1;fontSize=18;exitX=0;exitY=0.75;exitDx=0;exitDy=0;" edge="1" parent="1">
          <mxGeometry width="50" height="50" relative="1" as="geometry">
            <mxPoint x="-1824.5" y="756.5" as="sourcePoint" />
            <mxPoint x="-1886.5" y="780" as="targetPoint" />
            <Array as="points">
              <mxPoint x="-1886.5" y="757" />
            </Array>
          </mxGeometry>
        </mxCell>
        <mxCell id="yD45Ho3UM-dj7maDb05n-77" value="" style="endArrow=classic;html=1;fontSize=18;exitX=0.75;exitY=0;exitDx=0;exitDy=0;entryX=0.004;entryY=0.567;entryDx=0;entryDy=0;entryPerimeter=0;" edge="1" source="yD45Ho3UM-dj7maDb05n-100" target="yD45Ho3UM-dj7maDb05n-69" parent="1">
          <mxGeometry width="50" height="50" relative="1" as="geometry">
            <mxPoint x="-1752.5" y="759" as="sourcePoint" />
            <mxPoint x="-1701.5" y="700" as="targetPoint" />
            <Array as="points">
              <mxPoint x="-1734.5" y="702" />
            </Array>
          </mxGeometry>
        </mxCell>
        <mxCell id="yD45Ho3UM-dj7maDb05n-78" value="ServiceLocation&lt;br&gt;Captured" style="html=1;outlineConnect=0;whiteSpace=wrap;fillColor=#99ffff;shape=mxgraph.archimate3.event;dashed=1;strokeWidth=2;fontSize=10;align=center;" vertex="1" parent="1">
          <mxGeometry x="-1596.5" y="685" width="95" height="29.5" as="geometry" />
        </mxCell>
        <mxCell id="yD45Ho3UM-dj7maDb05n-79" value="OrderType&lt;br&gt;Captured" style="html=1;outlineConnect=0;whiteSpace=wrap;fillColor=#99ffff;shape=mxgraph.archimate3.event;dashed=1;strokeWidth=2;fontSize=10;" vertex="1" parent="1">
          <mxGeometry x="-2005.5" y="681" width="85" height="27" as="geometry" />
        </mxCell>
        <mxCell id="yD45Ho3UM-dj7maDb05n-80" value="OrderLineItem&lt;br&gt;Added" style="html=1;outlineConnect=0;whiteSpace=wrap;fillColor=#99ffff;shape=mxgraph.archimate3.event;dashed=1;strokeWidth=2;fontSize=10;" vertex="1" parent="1">
          <mxGeometry x="-1585.5" y="757" width="110.5" height="29" as="geometry" />
        </mxCell>
        <mxCell id="yD45Ho3UM-dj7maDb05n-81" value="OrderProcessed" style="html=1;outlineConnect=0;whiteSpace=wrap;shape=mxgraph.archimate3.event;dashed=1;strokeWidth=2;fontSize=10;strokeColor=#B20000;fillColor=#e51400;fontColor=#ffffff;fontStyle=1" vertex="1" parent="1">
          <mxGeometry x="-1821.5" y="796" width="119" height="20" as="geometry" />
        </mxCell>
        <mxCell id="yD45Ho3UM-dj7maDb05n-83" value="InvoiceGroup" style="rounded=1;whiteSpace=wrap;html=1;gradientColor=#ffd966;fillColor=#fff2cc;strokeColor=#d6b656;" vertex="1" parent="1">
          <mxGeometry x="-1822.5" y="904" width="120" height="30" as="geometry" />
        </mxCell>
        <mxCell id="yD45Ho3UM-dj7maDb05n-84" value="" style="endArrow=classic;html=1;exitX=0.5;exitY=1;exitDx=0;exitDy=0;entryX=1;entryY=0.5;entryDx=0;entryDy=0;" edge="1" target="yD45Ho3UM-dj7maDb05n-83" parent="1">
          <mxGeometry width="50" height="50" relative="1" as="geometry">
            <mxPoint x="-1704.5" y="771" as="sourcePoint" />
            <mxPoint x="-1702.5" y="894" as="targetPoint" />
            <Array as="points">
              <mxPoint x="-1683.5" y="771" />
              <mxPoint x="-1683.5" y="919" />
            </Array>
          </mxGeometry>
        </mxCell>
        <mxCell id="yD45Ho3UM-dj7maDb05n-85" value="ContractEntered" style="html=1;outlineConnect=0;whiteSpace=wrap;fillColor=#99ffff;shape=mxgraph.archimate3.event;dashed=1;strokeWidth=2;fontSize=10;" vertex="1" parent="1">
          <mxGeometry x="-2049.5" y="780.5" width="100" height="27" as="geometry" />
        </mxCell>
        <mxCell id="yD45Ho3UM-dj7maDb05n-86" value="ShipmentLocation" style="rounded=1;whiteSpace=wrap;html=1;gradientColor=#ffd966;fillColor=#fff2cc;strokeColor=#d6b656;" vertex="1" parent="1">
          <mxGeometry x="-1930.5" y="633" width="120" height="30" as="geometry" />
        </mxCell>
        <mxCell id="yD45Ho3UM-dj7maDb05n-87" value="" style="endArrow=classic;html=1;fontSize=18;entryX=1;entryY=0.5;entryDx=0;entryDy=0;exitX=0.407;exitY=-0.037;exitDx=0;exitDy=0;exitPerimeter=0;" edge="1" target="yD45Ho3UM-dj7maDb05n-86" parent="1">
          <mxGeometry width="50" height="50" relative="1" as="geometry">
            <mxPoint x="-1775.6599999999999" y="751.8899999999999" as="sourcePoint" />
            <mxPoint x="-1694.5" y="660" as="targetPoint" />
            <Array as="points">
              <mxPoint x="-1775.5" y="648" />
            </Array>
          </mxGeometry>
        </mxCell>
        <mxCell id="yD45Ho3UM-dj7maDb05n-90" style="edgeStyle=orthogonalEdgeStyle;rounded=0;orthogonalLoop=1;jettySize=auto;html=1;entryX=1;entryY=0.5;entryDx=0;entryDy=0;" edge="1" source="yD45Ho3UM-dj7maDb05n-100" parent="1">
          <mxGeometry relative="1" as="geometry">
            <Array as="points">
              <mxPoint x="-1833.5" y="766" />
              <mxPoint x="-1833.5" y="867" />
            </Array>
            <mxPoint x="-1847.5" y="867" as="targetPoint" />
          </mxGeometry>
        </mxCell>
        <mxCell id="yD45Ho3UM-dj7maDb05n-91" style="edgeStyle=orthogonalEdgeStyle;rounded=0;orthogonalLoop=1;jettySize=auto;html=1;" edge="1" source="yD45Ho3UM-dj7maDb05n-100" parent="1">
          <mxGeometry relative="1" as="geometry">
            <Array as="points">
              <mxPoint x="-1833.5" y="766" />
              <mxPoint x="-1833.5" y="912" />
            </Array>
            <mxPoint x="-1869.5" y="912" as="targetPoint" />
          </mxGeometry>
        </mxCell>
        <mxCell id="yD45Ho3UM-dj7maDb05n-94" style="edgeStyle=orthogonalEdgeStyle;rounded=1;orthogonalLoop=1;jettySize=auto;html=1;entryX=1;entryY=0.5;entryDx=0;entryDy=0;" edge="1" source="yD45Ho3UM-dj7maDb05n-100" target="yD45Ho3UM-dj7maDb05n-125" parent="1">
          <mxGeometry relative="1" as="geometry">
            <Array as="points">
              <mxPoint x="-1809.5" y="730" />
            </Array>
          </mxGeometry>
        </mxCell>
        <mxCell id="yD45Ho3UM-dj7maDb05n-99" style="edgeStyle=orthogonalEdgeStyle;rounded=1;orthogonalLoop=1;jettySize=auto;html=1;entryX=1;entryY=0.5;entryDx=0;entryDy=0;exitX=1;exitY=0.5;exitDx=0;exitDy=0;" edge="1" target="yD45Ho3UM-dj7maDb05n-130" parent="1">
          <mxGeometry relative="1" as="geometry">
            <mxPoint x="-1704.5" y="769" as="sourcePoint" />
            <mxPoint x="-1707.12" y="1085.5" as="targetPoint" />
            <Array as="points">
              <mxPoint x="-1689.5" y="769" />
              <mxPoint x="-1689.5" y="995" />
            </Array>
          </mxGeometry>
        </mxCell>
        <mxCell id="yD45Ho3UM-dj7maDb05n-139" style="edgeStyle=orthogonalEdgeStyle;rounded=0;orthogonalLoop=1;jettySize=auto;html=1;entryX=0;entryY=0.5;entryDx=0;entryDy=0;" edge="1" parent="1" source="yD45Ho3UM-dj7maDb05n-100" target="yD45Ho3UM-dj7maDb05n-109">
          <mxGeometry relative="1" as="geometry">
            <Array as="points">
              <mxPoint x="-1689.5" y="766" />
              <mxPoint x="-1689.5" y="855" />
            </Array>
          </mxGeometry>
        </mxCell>
        <mxCell id="yD45Ho3UM-dj7maDb05n-100" value="Order" style="rounded=1;whiteSpace=wrap;html=1;fontStyle=1;gradientColor=#7ea6e0;fillColor=#dae8fc;strokeColor=#6c8ebf;" vertex="1" parent="1">
          <mxGeometry x="-1824.5" y="751" width="120" height="30" as="geometry" />
        </mxCell>
        <mxCell id="yD45Ho3UM-dj7maDb05n-101" value="ShipmentLocation&lt;br&gt;Captured" style="html=1;outlineConnect=0;whiteSpace=wrap;fillColor=#99ffff;shape=mxgraph.archimate3.event;dashed=1;strokeWidth=2;fontSize=10;" vertex="1" parent="1">
          <mxGeometry x="-1924.5" y="604" width="120" height="26" as="geometry" />
        </mxCell>
        <mxCell id="yD45Ho3UM-dj7maDb05n-102" value="OrderPriceCaptured" style="html=1;outlineConnect=0;whiteSpace=wrap;fillColor=#99ffff;shape=mxgraph.archimate3.event;dashed=1;strokeWidth=2;fontSize=10;" vertex="1" parent="1">
          <mxGeometry x="-1705.5" y="609" width="120" height="26" as="geometry" />
        </mxCell>
        <mxCell id="yD45Ho3UM-dj7maDb05n-103" value="InvoiceGroup&lt;br&gt;Selected" style="html=1;outlineConnect=0;whiteSpace=wrap;fillColor=#99ffff;shape=mxgraph.archimate3.event;dashed=1;strokeWidth=2;fontSize=10;" vertex="1" parent="1">
          <mxGeometry x="-1823.01" y="938" width="123.51" height="33" as="geometry" />
        </mxCell>
        <mxCell id="yD45Ho3UM-dj7maDb05n-105" value="ContractUpdated" style="html=1;outlineConnect=0;whiteSpace=wrap;fillColor=#99ffff;shape=mxgraph.archimate3.event;dashed=1;strokeWidth=2;fontSize=10;" vertex="1" parent="1">
          <mxGeometry x="-1949.5" y="813" width="108" height="27" as="geometry" />
        </mxCell>
        <mxCell id="yD45Ho3UM-dj7maDb05n-106" value="OrderLineItem&lt;br&gt;Deleted" style="html=1;outlineConnect=0;whiteSpace=wrap;fillColor=#99ffff;shape=mxgraph.archimate3.event;dashed=1;strokeWidth=2;fontSize=10;align=center;" vertex="1" parent="1">
          <mxGeometry x="-1585.5" y="721" width="109.75" height="29.5" as="geometry" />
        </mxCell>
        <mxCell id="yD45Ho3UM-dj7maDb05n-107" value="Product" style="rounded=1;whiteSpace=wrap;html=1;gradientColor=#ffd966;fillColor=#fff2cc;strokeColor=#d6b656;" vertex="1" parent="1">
          <mxGeometry x="-1675.69" y="796" width="100" height="30" as="geometry" />
        </mxCell>
        <mxCell id="yD45Ho3UM-dj7maDb05n-108" value="ProductSelected" style="html=1;outlineConnect=0;whiteSpace=wrap;fillColor=#99ffff;shape=mxgraph.archimate3.event;dashed=1;strokeWidth=2;fontSize=10;align=center;" vertex="1" parent="1">
          <mxGeometry x="-1571.75" y="798" width="111.01" height="29.5" as="geometry" />
        </mxCell>
        <mxCell id="yD45Ho3UM-dj7maDb05n-109" value="OrderStatus" style="rounded=1;whiteSpace=wrap;html=1;gradientColor=#ffd966;fillColor=#fff2cc;strokeColor=#d6b656;" vertex="1" parent="1">
          <mxGeometry x="-1643.5" y="840" width="100" height="30" as="geometry" />
        </mxCell>
        <mxCell id="yD45Ho3UM-dj7maDb05n-110" value="OrderProcessed" style="html=1;outlineConnect=0;whiteSpace=wrap;fillColor=#99ffff;shape=mxgraph.archimate3.event;dashed=1;strokeWidth=2;fontSize=10;align=center;" vertex="1" parent="1">
          <mxGeometry x="-1643.5" y="955" width="99.5" height="29.5" as="geometry" />
        </mxCell>
        <mxCell id="yD45Ho3UM-dj7maDb05n-115" value="PBX&lt;br&gt;Instance" style="rounded=1;whiteSpace=wrap;html=1;gradientColor=#ffd966;fillColor=#fff2cc;strokeColor=#d6b656;" vertex="1" parent="1">
          <mxGeometry x="-1923.5" y="851" width="77" height="30" as="geometry" />
        </mxCell>
        <mxCell id="yD45Ho3UM-dj7maDb05n-119" value="PBXInstanceSelected" style="html=1;outlineConnect=0;whiteSpace=wrap;fillColor=#99ffff;shape=mxgraph.archimate3.event;dashed=1;strokeWidth=2;fontSize=10;" vertex="1" parent="1">
          <mxGeometry x="-2054.5" y="851" width="125" height="27" as="geometry" />
        </mxCell>
        <mxCell id="yD45Ho3UM-dj7maDb05n-121" value="OrderCancelled" style="html=1;outlineConnect=0;whiteSpace=wrap;shape=mxgraph.archimate3.event;dashed=1;strokeWidth=2;fontSize=10;strokeColor=#B20000;fillColor=#e51400;fontColor=#ffffff;fontStyle=1" vertex="1" parent="1">
          <mxGeometry x="-1820.5" y="861" width="119" height="20" as="geometry" />
        </mxCell>
        <mxCell id="yD45Ho3UM-dj7maDb05n-122" value="OrderClosed" style="html=1;outlineConnect=0;whiteSpace=wrap;shape=mxgraph.archimate3.event;dashed=1;strokeWidth=2;fontSize=10;strokeColor=#B20000;fillColor=#e51400;fontColor=#ffffff;fontStyle=1" vertex="1" parent="1">
          <mxGeometry x="-1820.5" y="828" width="119" height="20" as="geometry" />
        </mxCell>
        <mxCell id="yD45Ho3UM-dj7maDb05n-125" value="OrderEffective&lt;br&gt;Dare" style="rounded=1;whiteSpace=wrap;html=1;gradientColor=#ffd966;fillColor=#fff2cc;strokeColor=#d6b656;" vertex="1" parent="1">
          <mxGeometry x="-1915.5" y="715" width="94" height="30" as="geometry" />
        </mxCell>
        <mxCell id="yD45Ho3UM-dj7maDb05n-126" value="OrderEffectiveDare&lt;br&gt;Captured" style="html=1;outlineConnect=0;whiteSpace=wrap;fillColor=#99ffff;shape=mxgraph.archimate3.event;dashed=1;strokeWidth=2;fontSize=10;" vertex="1" parent="1">
          <mxGeometry x="-2031.5" y="721" width="114" height="27" as="geometry" />
        </mxCell>
        <mxCell id="yD45Ho3UM-dj7maDb05n-127" value="OrderExecutionLog" style="rounded=1;whiteSpace=wrap;html=1;gradientColor=#ffd966;fillColor=#fff2cc;strokeColor=#d6b656;" vertex="1" parent="1">
          <mxGeometry x="-1988.5" y="896" width="120" height="30" as="geometry" />
        </mxCell>
        <mxCell id="yD45Ho3UM-dj7maDb05n-128" value="OrderExecutionNotes&lt;br&gt;Captured" style="html=1;outlineConnect=0;whiteSpace=wrap;fillColor=#99ffff;shape=mxgraph.archimate3.event;dashed=1;strokeWidth=2;fontSize=10;" vertex="1" parent="1">
          <mxGeometry x="-1992.12" y="931" width="129.25" height="28" as="geometry" />
        </mxCell>
        <mxCell id="yD45Ho3UM-dj7maDb05n-130" value="BillingActivation" style="rounded=1;whiteSpace=wrap;html=1;gradientColor=#ffd966;fillColor=#fff2cc;strokeColor=#d6b656;" vertex="1" parent="1">
          <mxGeometry x="-1810.12" y="982" width="99" height="26" as="geometry" />
        </mxCell>
        <mxCell id="yD45Ho3UM-dj7maDb05n-131" value="BillingActivated" style="html=1;outlineConnect=0;whiteSpace=wrap;fillColor=#99ffff;shape=mxgraph.archimate3.event;dashed=1;strokeWidth=2;fontSize=10;" vertex="1" parent="1">
          <mxGeometry x="-1824.5" y="1012" width="132" height="20" as="geometry" />
        </mxCell>
        <mxCell id="yD45Ho3UM-dj7maDb05n-134" value="ContractExpired" style="html=1;outlineConnect=0;whiteSpace=wrap;fillColor=#99ffff;shape=mxgraph.archimate3.event;dashed=1;strokeWidth=2;fontSize=10;" vertex="1" parent="1">
          <mxGeometry x="-2050.5" y="812" width="101" height="27" as="geometry" />
        </mxCell>
        <mxCell id="yD45Ho3UM-dj7maDb05n-135" value="" style="endArrow=classic;html=1;" edge="1" parent="1" source="yD45Ho3UM-dj7maDb05n-67">
          <mxGeometry width="50" height="50" relative="1" as="geometry">
            <mxPoint x="-1799.5" y="837" as="sourcePoint" />
            <mxPoint x="-1637.5" y="797" as="targetPoint" />
          </mxGeometry>
        </mxCell>
        <mxCell id="yD45Ho3UM-dj7maDb05n-136" value="OrderClosed" style="html=1;outlineConnect=0;whiteSpace=wrap;fillColor=#99ffff;shape=mxgraph.archimate3.event;dashed=1;strokeWidth=2;fontSize=10;align=center;" vertex="1" parent="1">
          <mxGeometry x="-1641.75" y="877" width="99.5" height="29.5" as="geometry" />
        </mxCell>
        <mxCell id="yD45Ho3UM-dj7maDb05n-137" value="OrderCancelled" style="html=1;outlineConnect=0;whiteSpace=wrap;fillColor=#99ffff;shape=mxgraph.archimate3.event;dashed=1;strokeWidth=2;fontSize=10;align=center;" vertex="1" parent="1">
          <mxGeometry x="-1643.37" y="917" width="99.5" height="29.5" as="geometry" />
        </mxCell>
      </root>
    </mxGraphModel>
  </diagram>
</mxfile>
